<?xml version="1.0" encoding="UTF-8"?>
<!-- Created with Inkscape (http://www.inkscape.org/) -->
<svg id="svg1337" width="100" height="100" version="1.1" xmlns="http://www.w3.org/2000/svg" xmlns:cc="http://creativecommons.org/ns#" xmlns:dc="http://purl.org/dc/elements/1.1/" xmlns:rdf="http://www.w3.org/1999/02/22-rdf-syntax-ns#" xmlns:xlink="http://www.w3.org/1999/xlink">
 <defs id="defs3">
  <linearGradient id="linearGradient2736">
   <stop id="stop2738" stop-color="#5a7aa4" offset="0"/>
   <stop id="stop2740" stop-color="#3b516c" offset="1"/>
  </linearGradient>
  <linearGradient id="linearGradient3933" x1="6.521" x2="6.5973" y1="35.292" y2="37.515" gradientTransform="matrix(-1.0942 0 0 .91391 49.421 -.75)" gradientUnits="userSpaceOnUse" xlink:href="#linearGradient2736"/>
  <linearGradient id="linearGradient3937" x1="6.521" x2="6.5973" y1="35.292" y2="37.515" gradientTransform="matrix(-1.0942 0 0 .91391 49.476 -.89363)" gradientUnits="userSpaceOnUse" xlink:href="#linearGradient2736"/>
  <linearGradient id="linearGradient3939" x1="6.521" x2="6.5973" y1="35.292" y2="37.515" gradientTransform="matrix(1.0942 0 0 .91391 -2.0517 -.89363)" gradientUnits="userSpaceOnUse" xlink:href="#linearGradient2736"/>
  <linearGradient id="linearGradient3973" x1="5.9931" x2="27.987" y1="21.553" y2="50.645" gradientTransform="matrix(1.4441 0 0 .69248 -.875 -.75)" gradientUnits="userSpaceOnUse">
   <stop id="stop6978" stop-color="#c1c3ae" offset="0"/>
   <stop id="stop6980" stop-color="#818373" offset="1"/>
  </linearGradient>
 </defs>
 <metadata id="metadata4">
  <rdf:RDF>
   <cc:Work rdf:about="">
    <dc:format>image/svg+xml</dc:format>
    <dc:type rdf:resource="http://purl.org/dc/dcmitype/StillImage"/>
    <dc:title/>
    <dc:creator>
     <cc:Agent>
      <dc:title>Jakub Steiner</dc:title>
     </cc:Agent>
    </dc:creator>
    <dc:source>http://jimmac.musichall.cz</dc:source>
    <dc:description>Desktop location.</dc:description>
    <dc:subject>
     <rdf:Bag>
      <rdf:li>desktop</rdf:li>
      <rdf:li>storage</rdf:li>
      <rdf:li>files</rdf:li>
      <rdf:li>default location</rdf:li>
     </rdf:Bag>
    </dc:subject>
    <cc:license rdf:resource="http://creativecommons.org/publicdomain/zero/1.0/"/>
    <dc:contributor>
     <cc:Agent>
      <dc:title>Garrett LeSage</dc:title>
     </cc:Agent>
    </dc:contributor>
   </cc:Work>
   <cc:License rdf:about="http://creativecommons.org/publicdomain/zero/1.0/">
    <cc:permits rdf:resource="http://creativecommons.org/ns#Reproduction"/>
    <cc:permits rdf:resource="http://creativecommons.org/ns#Distribution"/>
    <cc:permits rdf:resource="http://creativecommons.org/ns#DerivativeWorks"/>
   </cc:License>
  </rdf:RDF>
 </metadata>
 <g id="layer1" transform="matrix(1.0667 0 0 .87516 0 49.712)" fill-rule="evenodd">
  <g id="g3968" transform="matrix(2.1345,0,0,4.2506,-4.3071,-100.26)">
   <path id="path6215" transform="matrix(.97258 0 0 1.0147 .39284 -.58693)" d="m9.5776 15.426-6.0107 17.032c-0.16975 0.481 0.21653 1.0103 0.68584 1.0098l39.382-0.03982c0.68795-6.96e-4 1.1753-0.77053 0.89705-1.4512l-6.6997-16.388c-0.19004-0.46484-0.82967-0.86537-1.4471-0.86596l-25.553-0.02419c-0.48336-4.58e-4 -1.0356 0.10657-1.2546 0.72711z" fill="url(#linearGradient3973)" stroke="#404040" stroke-linecap="round" stroke-linejoin="round" stroke-width="1.0073"/>
   <path id="path6984" transform="matrix(.97258 0 0 1.0147 .39284 -.58693)" d="m4.125 32.875 5.9375-17.312 0.875-0.375 25.5 0.0625 0.875 0.8125h-26l-0.375 0.1875-5.3125 15.5z" fill="#fff" fill-opacity=".40936"/>
   <path id="path2344" transform="matrix(.97258 0 0 1.0147 .39284 -.58693)" d="m4.375 33.25 39.25 0.0625 0.5625-0.6875-6.8125-16.938 6.125 16.125-38.125 0.125z" fill-opacity=".12865"/>
  </g>
  <g id="g3952" transform="matrix(2.1323,0,0,4.2606,-4.2998,-101.13)">
   <path id="path2726" transform="matrix(.97258 0 0 1.0147 .39284 -.58693)" d="m4.0469 28.344c0.094038-0.21547 0.3164-0.37099 0.64062-0.36719l2 0.02344 3.1875 3.7812s-0.52501 1.295-0.3033 2.1225c0.45608 0.40554-0.0092 0.67442-0.0092 0.67442h-6.5c-0.5 0-1.1237-1.2651-0.8125-2.0156 0.79688-1.9219 0.92592-2.2231 1.7969-4.2188z" color="#000000" fill="url(#linearGradient3933)" stroke="#272840" stroke-linecap="round" stroke-linejoin="round" stroke-width="1.0066"/>
   <path id="path2744" transform="matrix(.97258 0 0 1.0147 .39284 -.58693)" d="m4.5312 28.531-1.8281 4.2188h6.2188l-5.4062-0.53125 1.4844-3.3594 1.4531-0.34375z" fill="#fff" fill-opacity=".48538"/>
  </g>
  <g id="g3956" transform="matrix(2.1323,0,0,4.2606,-4.2998,-101.13)">
   <path id="path2746" transform="matrix(.97258 0 0 1.0147 .39284 -.58693)" d="m44.499 28.344c-0.09404-0.21547-0.3164-0.37099-0.64062-0.36719l-2 0.02344-3.1875 3.7812s0.52501 1.295 0.3033 2.1225c-0.45608 0.40554 0.0092 0.67442 0.0092 0.67442h6.5c0.5 0 1.1237-1.2651 0.8125-2.0156-0.79688-1.9219-0.92592-2.2231-1.7969-4.2188z" color="#000000" fill="url(#linearGradient3933)" stroke="#272840" stroke-linecap="round" stroke-linejoin="round" stroke-width="1.0066"/>
   <path id="path2750" transform="matrix(.97258 0 0 1.0147 .39284 -.58693)" d="m43.938 28.49h-1.8341l-2.8726 3.3809s0.24307 0.81759 0.28726 1.2595c0.04419 0.44194-0.11048 0.99437-0.11048 0.99437s0.66291-0.90598 0.57452-1.3921c-0.08839-0.48614-0.19887-0.88388-0.19887-0.88388l2.5412-3.0936z" color="#000000" fill="#fff" fill-opacity=".48538"/>
  </g>
  <g id="g3964" transform="matrix(2.1323,0,0,4.2606,-4.2998,-101.13)">
   <path id="path2752" transform="matrix(.97258 0 0 1.0147 .39284 -.58693)" d="m8.8919 17.408 5.4248-2.6516c0.36003-0.17598-0.30637-0.97227-0.70711-0.97227h-4.331l-1.2374 3.182c-0.17612 0.45287 0.33113 1.8709 0.49718 1.4142z" color="#000000" fill="url(#linearGradient3937)" stroke="#272840" stroke-linecap="round" stroke-linejoin="round" stroke-width=".8053"/>
   <path id="path2756" transform="matrix(.97258 0 0 1.0147 .39284 -.58693)" d="m8.5052 17.894c-0.13145-0.2753-0.18628-0.57567-0.011048-1.0165l1.0717-2.6958 4.0106 0.01105-3.5797 0.43089-1.3037 2.2981c-0.3215 0.56671-0.23719 0.62573-0.18783 0.97227z" color="#000000" fill="#fff" fill-opacity=".48538"/>
  </g>
  <g id="g3960" transform="matrix(2.1323,0,0,4.2606,-4.2998,-101.13)">
   <path id="path2758" transform="matrix(.97258 0 0 1.0147 .39284 -.58693)" d="m38.533 17.408-5.4248-2.6516c-0.36003-0.17598 0.30637-0.97227 0.70711-0.97227h4.331l1.2374 3.182c0.17612 0.45287-0.33113 1.8709-0.49718 1.4142z" color="#000000" fill="url(#linearGradient3939)" stroke="#272840" stroke-linecap="round" stroke-linejoin="round" stroke-width=".8053"/>
   <path id="path2762" transform="matrix(.97258 0 0 1.0147 .39284 -.58693)" d="m37.875 14.203s-3.7812-0.04687-4.0156-0.03125c-0.23438 0.01563-0.39062 0.29688-0.39062 0.29688s5.125 2.5 5.25 2.5781c0.125 0.07813 0.25 0.35938 0.25 0.35938s0.04687-0.40625-0.1875-0.59375c-0.23438-0.1875-4.0128-2.1738-4.6875-2.4219 2.1075-0.17717 2.4427-0.13021 3.7812-0.1875z" color="#000000" fill="#fff" fill-opacity=".48538"/>
  </g>
 </g>
</svg>
