<?xml version="1.0" encoding="UTF-8"?>
<svg id="svg2" width="100" height="100" enable-background="new 0 0 128 129.396" overflow="visible" version="1.0" xml:space="preserve" xmlns="http://www.w3.org/2000/svg" xmlns:cc="http://creativecommons.org/ns#" xmlns:dc="http://purl.org/dc/elements/1.1/" xmlns:rdf="http://www.w3.org/1999/02/22-rdf-syntax-ns#"><metadata id="metadata367"><rdf:RDF><cc:Work rdf:about=""><dc:format>image/svg+xml</dc:format><dc:type rdf:resource="http://purl.org/dc/dcmitype/StillImage"/><cc:license rdf:resource="http://creativecommons.org/publicdomain/zero/1.0/"/><dc:title/><dc:creator><cc:Agent><dc:title>Jakub Steiner</dc:title></cc:Agent></dc:creator><dc:source>http://jimmac.musichall.cz</dc:source><dc:subject><rdf:Bag><rdf:li>home</rdf:li><rdf:li>return</rdf:li><rdf:li>go</rdf:li><rdf:li>default</rdf:li><rdf:li>user</rdf:li><rdf:li>directory</rdf:li></rdf:Bag></dc:subject><dc:contributor><cc:Agent><dc:title>Tuomas Kuosmanen</dc:title></cc:Agent></dc:contributor></cc:Work><cc:License rdf:about="http://creativecommons.org/publicdomain/zero/1.0/"><cc:permits rdf:resource="http://creativecommons.org/ns#Reproduction"/><cc:permits rdf:resource="http://creativecommons.org/ns#Distribution"/><cc:permits rdf:resource="http://creativecommons.org/ns#DerivativeWorks"/></cc:License></rdf:RDF></metadata><defs id="defs365"><linearGradient id="linearGradient1514" x1="52.006" x2="14.049" y1="166.13" y2="-42.219" gradientTransform="matrix(.74918 0 0 .38324 37.074 31.922)" gradientUnits="userSpaceOnUse"><stop id="stop17" stop-color="#ccc" offset="0"/><stop id="stop19" stop-color="#fff" offset=".9831"/></linearGradient><linearGradient id="XMLID_39_" x1="64.388" x2="64.388" y1="65.124" y2="35.569" gradientTransform="matrix(.78737 0 0 .81315 .7314 -3.7752)" gradientUnits="userSpaceOnUse"><stop id="stop336" stop-color="#fff" offset="0"/><stop id="stop338" stop-color="#FF6200" offset=".8539"/><stop id="stop340" stop-color="#F25D00" offset="1"/><midPointStop id="midPointStop335" stop-color="#FFFFFF" offset="0"/><midPointStop id="midPointStop337" stop-color="#FFFFFF" offset="0.5"/><midPointStop id="midPointStop339" stop-color="#FF6200" offset="0.8539"/><midPointStop id="midPointStop341" stop-color="#FF6200" offset="0.5"/><midPointStop id="midPointStop343" stop-color="#F25D00" offset="1"/></linearGradient><radialGradient id="radialGradient2305" cx="7.5327" cy="24.203" r="8.2452" gradientTransform="matrix(9.1169 0 0 9.6478 -59.425 -183.94)" gradientUnits="userSpaceOnUse"><stop id="stop2301" stop-color="#fff" offset="0"/><stop id="stop2303" stop-color="#fff" stop-opacity="0" offset="1"/></radialGradient><radialGradient id="radialGradient2313" cx="19.986" cy="36.778" r="1.0821" gradientTransform="matrix(2.5021 0 0 2.2568 -10.536 -2.2838)" gradientUnits="userSpaceOnUse"><stop id="stop2309" stop-color="#edd400" offset="0"/><stop id="stop2311" stop-color="#980" offset="1"/></radialGradient><radialGradient id="radialGradient2325" cx="20.444" cy="37.426" r="1.0821" gradientTransform="matrix(2.5021 0 0 2.2568 -10.536 -1.9042)" gradientUnits="userSpaceOnUse"><stop id="stop2321" offset="0"/><stop id="stop2323" stop-opacity="0" offset="1"/></radialGradient><linearGradient id="linearGradient2335" x1="17.603" x2="17.683" y1="26.057" y2="32.654" gradientTransform="matrix(1.9985 0 0 2.4615 -1.8494 -8.3615)" gradientUnits="userSpaceOnUse"><stop id="stop2331" stop-opacity=".18557" offset="0"/><stop id="stop2333" stop-color="#fff" offset="1"/></linearGradient><radialGradient id="radialGradient2339" cx="11.681" cy="19.554" r="8.2452" gradientTransform="matrix(9.1169 0 0 -9.6478 -14.471 238.35)" gradientUnits="userSpaceOnUse"><stop id="stop2343" offset="0"/><stop id="stop2345" stop-opacity="0" offset="1"/></radialGradient><radialGradient id="radialGradient2374" cx="29.913" cy="30.443" r="4.0019" gradientTransform="matrix(8.3418 0 0 7.2286 -185.27 -154.47)" gradientUnits="userSpaceOnUse"><stop id="stop2370" stop-color="#fff" offset="0"/><stop id="stop2372" stop-color="#fff" stop-opacity="0" offset="1"/></radialGradient><radialGradient id="radialGradient2384" cx="24.195" cy="10.578" r="15.243" gradientTransform="matrix(2.5021 -8.2335e-8 9.4943e-8 3.0773 -9.598 -.4706)" gradientUnits="userSpaceOnUse"><stop id="stop2380" stop-color="#575757" offset="0"/><stop id="stop2382" stop-color="#575757" stop-opacity="0" offset="1"/></radialGradient><linearGradient id="linearGradient2412" x1="17.85" x2="19.04" y1="28.939" y2="41.032" gradientTransform="matrix(1.9763 0 0 2.5015 2.4487 -7.0836)" gradientUnits="userSpaceOnUse"><stop id="stop2408" stop-color="#7c7e79" offset="0"/><stop id="stop2414" stop-color="#848681" offset=".17241"/><stop id="stop2410" stop-color="#898c86" offset="1"/></linearGradient></defs><path id="rect1512" d="m45.161 15.209h13.247c1.8672 0 30.878 35.445 30.878 37.524l-0.9862 42.475c0 2.079-1.5032 3.7527-3.3704 3.7527h-69.948c-1.8672 0-3.3704-1.6737-3.3704-3.7527l0.12558-42.475c0-2.079 31.558-37.524 33.425-37.524z" color="#000000" fill="url(#linearGradient1514)" stroke="#757575" stroke-width="2.2597"/><path id="path5" d="m101.52 101.44h-100.78v-104.08h100.78z" fill="none" stroke-width=".94773"/><path id="path2327" d="m48.23 63.012-0.1017 34.654h-26.333l-0.24786-34.654h26.683z" clip-rule="evenodd" fill="url(#linearGradient2335)" fill-rule="evenodd" stroke-width=".94773"/><path id="path2357" d="m45.518 18.016h12.361c1.7424 0 28.909 33.067 28.909 35.006l-0.77194 41.822c0 1.0546-0.3196 1.5006-1.1393 1.5006l-69.792 0.03278c-0.8197 0-1.2985-0.18353-1.2985-1.0415l0.47883-42.314c0-1.9395 29.511-35.006 31.253-35.006z" color="#000000" fill="none" opacity=".3125" stroke="#fff" stroke-width="2.2597"/><path id="path23" d="m13.114 60.585-0.12064 5.9595 40.843-30.265 33.991 25.615 0.15858-0.71581-36.401-36.522z" clip-rule="evenodd" fill="url(#radialGradient2384)" fill-rule="evenodd" opacity=".2" stroke-width=".94773"/><path id="path188" d="m46.007 65.308v32.358h-21.816l-0.4202-32.358z" clip-rule="evenodd" fill="url(#linearGradient2412)" fill-rule="evenodd" stroke-width=".94773"/><path id="path2315" d="m40.618 80.114c1.496 0 2.7053 1.0899 2.7053 2.4307 0 1.3544-1.2092 2.4533-2.7053 2.4533-1.4949 0-2.7099-1.0989-2.7099-2.4533 0.0011-1.3409 1.215-2.4307 2.7099-2.4307z" clip-rule="evenodd" fill="url(#radialGradient2325)" fill-rule="evenodd" opacity=".40909" stroke-width=".94773"/><path id="path217" d="m40.364 78.931c1.496 0 2.7052 1.0899 2.7052 2.4307 0 1.3544-1.2092 2.4533-2.7052 2.4533-1.4949 0-2.7099-1.0989-2.7099-2.4533 0.0011-1.3409 1.215-2.4307 2.7099-2.4307z" clip-rule="evenodd" fill="url(#radialGradient2313)" fill-rule="evenodd" stroke-width=".94773"/><path id="path342" d="m51.449 22.961 42.086 39.428 1.1 0.90016 0.89761-0.39356-0.8291-1.7491l-0.6173-0.51309-42.637-35.76-43.114 36.153-0.52833 0.33095-0.48187 1.623 0.96375 0.2968 0.85509-0.70825z" fill="url(#XMLID_39_)" stroke-width=".94773"/><path id="path362" d="m51.188 1.6327-48.656 41.567-1.3891 16.456 4.447 4.7405s45.378-39.4 45.859-39.792l43.655 40.286 4.2213-5.3368-3.5928-16.33-44.283-41.831z" fill="#ef2929" stroke="#a40000" stroke-width="2.2597"/><path id="path1536" d="m3.4056 43.752-0.6483 15.21 48.517-41.924-0.15638-13.533z" color="#000000" fill="url(#radialGradient2305)" opacity=".40909"/><path id="path2337" d="m51.529 16.512 0.22116-13.413 42.98 40.536 3.3172 14.928z" color="#000000" fill="url(#radialGradient2339)" opacity=".13636"/><path id="rect2361" d="m57.352 60.072h20.101c1.7135 0 3.0929 1.4246 3.0929 3.1942l-0.01777 20.849c0 1.7696-1.326 2.9071-3.0395 2.9071h-20.137c-1.7135 0-3.0929-1.4246-3.0929-3.1942v-20.562c0-1.7696 1.3794-3.1942 3.0929-3.1942z" color="#000000" fill="none" opacity=".31818" stroke="#fff" stroke-width="2.2597"/><rect id="rect3263" x="56.03" y="61.896" width="22.239" height="22.878" rx=".84781" ry=".87557" color="#000000" fill="#3465a4" stroke="#757575" stroke-width="2.2597"/><path id="rect2363" d="m57.363 75.431c8.0449 0.76051 12.291-3.3199 19.719-3.5657l0.05496-8.8399-19.816-0.01385 0.04165 12.419z" color="#000000" fill="url(#radialGradient2374)" opacity=".39773"/></svg>
