<?xml version="1.0" encoding="UTF-8"?>
<!-- Created with Inkscape (http://www.inkscape.org/) -->
<svg id="svg11300" width="100" height="100" version="1.1" xmlns="http://www.w3.org/2000/svg" xmlns:cc="http://creativecommons.org/ns#" xmlns:dc="http://purl.org/dc/elements/1.1/" xmlns:rdf="http://www.w3.org/1999/02/22-rdf-syntax-ns#">
 <defs id="defs3">
  <radialGradient id="radialGradient3207" cx="22.75" cy="10.25" r="19.875" gradientTransform="matrix(1.6165 0 0 1.7081 -14.026 -8.0075)" gradientUnits="userSpaceOnUse">
   <stop id="stop15655" stop-color="#f0f1ee" offset="0"/>
   <stop id="stop15657" stop-color="#d5d9d1" offset="1"/>
  </radialGradient>
  <radialGradient id="radialGradient3209" cx="17.62" cy="21.611" r="8" gradientTransform="matrix(4.073 0 0 2.8745 -48.885 -43.215)" gradientUnits="userSpaceOnUse">
   <stop id="stop2662" stop-color="#edeeec" offset="0"/>
   <stop id="stop2664" stop-color="#babdb6" offset="1"/>
  </radialGradient>
 </defs>
 <metadata id="metadata4">
  <rdf:RDF>
   <cc:Work rdf:about="">
    <dc:format>image/svg+xml</dc:format>
    <dc:type rdf:resource="http://purl.org/dc/dcmitype/StillImage"/>
    <dc:creator>
     <cc:Agent>
      <dc:title>Jakub Steiner</dc:title>
     </cc:Agent>
    </dc:creator>
    <dc:source>http://jimmac.musichall.cz</dc:source>
    <cc:license rdf:resource="http://creativecommons.org/publicdomain/zero/1.0/"/>
    <dc:title/>
    <dc:subject>
     <rdf:Bag>
      <rdf:li>apparmor</rdf:li>
      <rdf:li>novell</rdf:li>
     </rdf:Bag>
    </dc:subject>
    <dc:contributor>
     <cc:Agent>
      <dc:title>Garrett LeSage</dc:title>
     </cc:Agent>
    </dc:contributor>
   </cc:Work>
   <cc:License rdf:about="http://creativecommons.org/publicdomain/zero/1.0/">
    <cc:permits rdf:resource="http://creativecommons.org/ns#Reproduction"/>
    <cc:permits rdf:resource="http://creativecommons.org/ns#Distribution"/>
    <cc:permits rdf:resource="http://creativecommons.org/ns#DerivativeWorks"/>
   </cc:License>
  </rdf:RDF>
 </metadata>
 <g id="layer1" transform="matrix(1.0667 0 0 1.0667 0 48.8)">
  <g id="g3152" transform="matrix(2.3587 0 0 2.2305 -8.2594 -51.292)">
   <path id="path15651" d="m23 3c-7.401 5.5766-19 9-19 9 3 25.75 19.375 32 19.375 32s16.125-6.5 19.375-32.375c0 0-14-5.125-19.75-8.625z" color="#000000" display="block" fill="url(#radialGradient3207)" stroke="#888a85" stroke-linecap="round" stroke-linejoin="round" stroke-width=".99687"/>
   <path id="path15665" d="m23.024 4.2893c-6.9355 5.2259-17.805 8.434-17.805 8.434 2.8113 24.131 18.117 29.987 18.117 29.987s15.15-6.0912 18.196-30.339c0 0-13.119-4.8027-18.508-8.0825z" color="#000000" display="block" fill="none" stroke="#fff" stroke-linecap="round" stroke-linejoin="round" stroke-width=".99687"/>
   <path id="path15667" d="m22.883 7v33s-12.318-5.2594-16-26c5.25-0.875 16-7 16-7z" color="#000000" display="block" fill="url(#radialGradient3209)"/>
  </g>
 </g>
</svg>
