<?xml version="1.0" encoding="UTF-8"?>
<!-- Created with Inkscape (http://www.inkscape.org/) -->
<svg id="svg1306" width="100" height="100" version="1.1" xmlns="http://www.w3.org/2000/svg" xmlns:cc="http://creativecommons.org/ns#" xmlns:dc="http://purl.org/dc/elements/1.1/" xmlns:rdf="http://www.w3.org/1999/02/22-rdf-syntax-ns#">
 <defs id="defs1308">
  <linearGradient id="linearGradient3168" x1="-28.969" x2="-37.197" y1="-25.327" y2="-9.5591" gradientUnits="userSpaceOnUse">
   <stop id="stop4028" stop-color="#fff9c6" offset="0"/>
   <stop id="stop4042" stop-color="#fff28c" offset=".54167"/>
   <stop id="stop4030" stop-color="#ffea85" offset="1"/>
  </linearGradient>
  <radialGradient id="radialGradient4020" cx="-33.519" cy="-22.113" r="9.5" gradientTransform="matrix(.48774 1.2924 -1.1027 .49724 -41.774 32.415)" gradientUnits="userSpaceOnUse">
   <stop id="stop4034" stop-color="#fff7c2" stop-opacity=".6383" offset="0"/>
   <stop id="stop4036" stop-color="#fcaf3e" stop-opacity=".18349" offset=".59394"/>
   <stop id="stop4038" stop-color="#fcaf3e" stop-opacity=".50459" offset=".83851"/>
   <stop id="stop4040" stop-color="#fcaf3e" offset="1"/>
  </radialGradient>
  <radialGradient id="radialGradient4081" cx="24" cy="23.382" r="19.142" gradientTransform="matrix(1.0067 0 0 1.0075 -.16082 .42698)" gradientUnits="userSpaceOnUse">
   <stop id="stop4085" stop-color="#fff" stop-opacity="0" offset="0"/>
   <stop id="stop4089" stop-color="#fff" stop-opacity="0" offset=".75"/>
   <stop id="stop4087" stop-color="#fff" offset="1"/>
  </radialGradient>
 </defs>
 <metadata id="metadata1311">
  <rdf:RDF>
   <cc:Work rdf:about="">
    <dc:format>image/svg+xml</dc:format>
    <dc:type rdf:resource="http://purl.org/dc/dcmitype/StillImage"/>
    <dc:title/>
    <dc:date>January 2006</dc:date>
    <dc:creator>
     <cc:Agent>
      <dc:title>Ryan Collier (pseudo)</dc:title>
     </cc:Agent>
    </dc:creator>
    <dc:publisher>
     <cc:Agent>
      <dc:title>http://www.tango-project.org</dc:title>
     </cc:Agent>
    </dc:publisher>
    <dc:source>http://www.pseudocode.org</dc:source>
    <dc:subject>
     <rdf:Bag>
      <rdf:li>weather</rdf:li>
      <rdf:li>applet</rdf:li>
      <rdf:li>notification</rdf:li>
     </rdf:Bag>
    </dc:subject>
    <cc:license rdf:resource="http://creativecommons.org/publicdomain/zero/1.0/"/>
    <dc:contributor>
     <cc:Agent>
      <dc:title>Garrett LeSage</dc:title>
     </cc:Agent>
    </dc:contributor>
   </cc:Work>
   <cc:License rdf:about="http://creativecommons.org/publicdomain/zero/1.0/">
    <cc:permits rdf:resource="http://creativecommons.org/ns#Reproduction"/>
    <cc:permits rdf:resource="http://creativecommons.org/ns#Distribution"/>
    <cc:permits rdf:resource="http://creativecommons.org/ns#DerivativeWorks"/>
   </cc:License>
  </rdf:RDF>
 </metadata>
 <g id="layer1" transform="matrix(1.0667 0 0 1.0667 0 48.8)">
  <g id="g3936" transform="matrix(2.5926 0 0 2.5896 -15.348 -61.026)">
   <g id="g4091" opacity=".7" stroke-linecap="square">
    <path id="path7492" d="m24 2.5-2.375 6.6875c0.77403-0.12337 1.5664-0.1875 2.375-0.1875s1.601 0.064132 2.375 0.1875zm-15.188 6.2812 3.0312 6.4375c0.93528-1.2902 2.0848-2.4397 3.375-3.375zm30.406 0-6.4375 3.0625c1.2902 0.93528 2.4397 2.0848 3.375 3.375zm-30.031 12.812-6.6875 2.375l6.6875 2.375c-0.12016-0.76423-0.1875-1.5459-0.1875-2.3438 0-0.81938 0.060886-1.6224 0.1875-2.4062zm29.625 0.03125c0.12337 0.77403 0.1875 1.5664 0.1875 2.375s-0.06413 1.601-0.1875 2.375l6.6875-2.375zm-26.969 11.156-3.0312 6.4062 6.4062-3.0312c-1.2902-0.93528-2.4397-2.0848-3.375-3.375zm24.312 0c-0.92646 1.278-2.0686 2.4135-3.3438 3.3438l6.4062 3.0625zm-14.531 6.0312 2.375 6.6875 2.375-6.6875c-0.77403 0.12337-1.5664 0.1875-2.375 0.1875s-1.601-0.06413-2.375-0.1875z" fill="#fce94f" stroke="#fcaf3e" stroke-width=".73733"/>
    <path id="path7494" d="m24 5.25-1.3438 3.8125c0.44264-0.039351 0.89094-0.0625 1.3438-0.0625s0.90111 0.023149 1.3438 0.0625zm-13.219 5.5 1.7188 3.625c0.57154-0.68091 1.224-1.3363 1.9062-1.9062zm26.469 0-3.625 1.7188c0.67968 0.56944 1.3368 1.2266 1.9062 1.9062zm-28.188 11.875-3.7812 1.3438 3.7812 1.3438c-0.037519-0.43235-0.0625-0.87047-0.0625-1.3125 0-0.46359 0.021274-0.92209 0.0625-1.375zm29.875 0.03125c0.039351 0.44264 0.0625 0.89094 0.0625 1.3438s-0.02315 0.90111-0.0625 1.3438l3.7812-1.3438zm-3.4062 10.938c-0.57296 0.68579-1.2213 1.3636-1.9062 1.9375l3.625 1.7188zm-23.031 0.03125-1.7188 3.5938 3.5938-1.7188c-0.67207-0.56412-1.3109-1.2029-1.875-1.875zm10.156 5.3125 1.3438 3.7812 1.3438-3.7812c-0.44264 0.039351-0.89094 0.0625-1.3438 0.0625s-0.90111-0.02315-1.3438-0.0625z" fill="none" stroke="url(#radialGradient4081)" stroke-width=".84646"/>
   </g>
   <g id="g4046">
    <g id="g3931">
     <circle id="path7498" transform="matrix(.77806 -1.0613 1.0613 .77806 67.48 3.6413)" cx="-32" cy="-17.5" r="9.5" fill="#ffee54" stroke="#fcaf3e" stroke-linecap="square" stroke-width=".75991"/>
     <circle id="path7500" transform="matrix(1.2443 -.16771 .21664 1.2518 67.616 40.527)" cx="-32" cy="-17.5" r="9.5" fill="url(#radialGradient4020)"/>
     <circle id="path7502" transform="matrix(.71579 -.97635 .97635 .71579 64 5.2695)" cx="-32" cy="-17.5" r="9.5" fill="none" stroke="url(#linearGradient3168)" stroke-linecap="square" stroke-width=".82602"/>
    </g>
   </g>
  </g>
 </g>
</svg>
