<?xml version="1.0" encoding="UTF-8"?>
<!-- Created with Inkscape (http://www.inkscape.org/) -->
<svg id="svg4163" width="100" height="100" version="1.1" viewBox="0 0 99.999997 100" xml:space="preserve" xmlns="http://www.w3.org/2000/svg" xmlns:cc="http://creativecommons.org/ns#" xmlns:dc="http://purl.org/dc/elements/1.1/" xmlns:rdf="http://www.w3.org/1999/02/22-rdf-syntax-ns#"><metadata id="metadata4169"><rdf:RDF><cc:Work rdf:about=""><dc:format>image/svg+xml</dc:format><dc:type rdf:resource="http://purl.org/dc/dcmitype/StillImage"/><dc:title/></cc:Work></rdf:RDF></metadata><g id="g4171" transform="matrix(1.3333 0 0 -1.3333 0 100)"><rect id="rect4196" transform="matrix(.7071 -.70711 -.7071 -.70711 0 0)" x="-29.359" y="-73.448" width="55.613" height="42.306" rx=".1816" ry=".2313" fill="#fff"/><g id="g4173" transform="matrix(.085702 0 0 .085704 -1.8746 -1.8746)"><path id="path4175" d="m901.54 500.35-401.19 401.18c-23.094 23.11-60.567 23.11-83.692 0l-83.301-83.316 105.67-105.68c24.563 8.293 52.727 2.727 72.297-16.847 19.688-19.696 25.203-48.102 16.699-72.75l101.86-101.84c24.648 8.496 53.066 3.004 72.754-16.711 27.5-27.492 27.5-72.059 0-99.574-27.52-27.516-72.078-27.516-99.61 0-20.683 20.703-25.8 51.097-15.312 76.582l-95 94.992v-249.97c6.699-3.32 13.027-7.742 18.613-13.312 27.5-27.497 27.5-72.059 0-99.598-27.5-27.488-72.09-27.488-99.57 0-27.5 27.539-27.5 72.101 0 99.598 6.797 6.789 14.668 11.925 23.066 15.363v252.28c-8.398 3.438-16.25 8.531-23.066 15.367-20.828 20.821-25.84 51.395-15.156 76.977l-104.18 104.2-275.1-275.07c-23.105-23.129-23.105-60.602 0-83.711l401.21-401.18c23.098-23.105 60.559-23.105 83.692 0l399.32 399.32c23.113 23.113 23.113 60.605 0 83.711" fill="#f03c2e"/></g></g></svg>
