<?xml version="1.0" encoding="UTF-8"?>
<!-- Generator: Adobe Illustrator 9.0, SVG Export Plug-In  -->
<svg id="svg16168" width="100" height="100" version="1.1" xml:space="preserve" xmlns="http://www.w3.org/2000/svg" xmlns:cc="http://creativecommons.org/ns#" xmlns:dc="http://purl.org/dc/elements/1.1/" xmlns:rdf="http://www.w3.org/1999/02/22-rdf-syntax-ns#"><metadata id="metadata16236"><rdf:RDF><cc:Work rdf:about=""><dc:format>image/svg+xml</dc:format><dc:type rdf:resource="http://purl.org/dc/dcmitype/StillImage"/><dc:title/><dc:creator><cc:Agent><dc:title>Jakub Steiner</dc:title></cc:Agent></dc:creator><dc:subject><rdf:Bag><rdf:li>image</rdf:li><rdf:li>picture</rdf:li><rdf:li>snapshot</rdf:li><rdf:li>photo</rdf:li></rdf:Bag></dc:subject><cc:license rdf:resource="http://creativecommons.org/publicdomain/zero/1.0/"/></cc:Work><cc:License rdf:about="http://creativecommons.org/publicdomain/zero/1.0/"><cc:permits rdf:resource="http://creativecommons.org/ns#Reproduction"/><cc:permits rdf:resource="http://creativecommons.org/ns#Distribution"/><cc:permits rdf:resource="http://creativecommons.org/ns#DerivativeWorks"/></cc:License></rdf:RDF></metadata><defs id="defs16234"><linearGradient id="linearGradient7671" x1="21.933" x2="21.933" y1="24.627" y2="7.1091" gradientTransform="matrix(1.099 0 0 -.79776 -1.9539 37.324)" gradientUnits="userSpaceOnUse"><stop id="stop7650" stop-color="#8595bc" offset="0"/><stop id="stop7652" stop-color="#041a3b" offset="1"/></linearGradient><linearGradient id="linearGradient7673" x1="21.933" x2="21.933" y1="24.627" y2="7.1091" gradientTransform="matrix(1.099 0 0 1.1067 -1.9539 -4.9225)" gradientUnits="userSpaceOnUse"><stop id="stop16199" stop-color="#D0D6E5" stroke-width="1.2167" offset="0"/><stop id="stop16201" stop-color="#093A80" stroke-width="1.2167" offset="1"/></linearGradient><linearGradient id="linearGradient8148" x1="12.487" x2="31.081" y1="3.7319" y2="36.033" gradientTransform="matrix(3.2553 0 0 2.9187 116.45 -9.3657)" gradientUnits="userSpaceOnUse"><stop id="stop16177" stop-color="#D2D2D2" stroke-width="1.2167" offset="0"/><stop id="stop16179" stop-color="#EDEDED" stroke-width="1.2167" offset="1"/></linearGradient><radialGradient id="radialGradient8161" cx="12.7" cy="10.405" r="19.969" gradientTransform="matrix(3.883 0 0 3.3159 -28.583 -12.421)" gradientUnits="userSpaceOnUse"><stop id="stop8157" stop-color="#fff" offset="0"/><stop id="stop8159" stop-color="#fff" stop-opacity="0" offset="1"/></radialGradient><linearGradient id="linearGradient8166" x1="33.396" x2="34.17" y1="36.921" y2="38.07" gradientTransform="matrix(2.2701 0 0 2.9479 9.3631 -27.786)" gradientUnits="userSpaceOnUse"><stop id="stop2253" stop-color="#fff" offset="0"/><stop id="stop2255" stop-color="#fff" stop-opacity="0" offset="1"/></linearGradient><linearGradient id="linearGradient8169" x1="35.997" x2="33.665" y1="40.458" y2="37.771" gradientTransform="matrix(2.2701 0 0 2.9479 9.3631 -26.681)" gradientUnits="userSpaceOnUse"><stop id="stop2226" stop-color="#7c7c7c" offset="0"/><stop id="stop2228" stop-color="#b8b8b8" offset="1"/></linearGradient><linearGradient id="linearGradient8177" x1="42.188" x2="45" y1="31" y2="39.985" gradientTransform="matrix(2.2701 0 0 2.9479 -2.3223 -17.734)" gradientUnits="userSpaceOnUse"><stop id="stop8173" stop-color="#bbbdba" offset="0"/><stop id="stop8175" stop-color="#70746e" offset="1"/></linearGradient></defs><path id="rect7603" d="m3.8473 1.2934h92.305c1.4148 0 2.5538 1.4791 2.5538 3.3164v70.457c0 1.8373-19.197 23.64-20.612 23.64h-74.247c-1.4148 0-2.5538-1.4791-2.5538-3.3164v-90.78c0-1.8373 1.139-3.3164 2.5538-3.3164z" color="#000000" fill="url(#linearGradient8148)" stroke="#bbbfbb" stroke-width="2.5869"/><g id="g7654" transform="matrix(2.3944 0 0 3.0952 -4.1716 -4.5132)"><path id="path7644" d="m5.5127 30h34.131v-10.373h-34.131z" fill="url(#linearGradient7671)"/><path id="path16203" d="m5.5127 5.2378h34.131v14.39h-34.131z" fill="url(#linearGradient7673)"/><g id="g16205" transform="matrix(1.1892 0 0 1.1892 -3.5254 -6.5354)" stroke="#000" stroke-width="1.1561"><g id="g16207" stroke="none"><path id="path16209" d="m18.4 15.4c0 2.2-1.8 4.1-4.1 4.1-2.2 0-4.1-1.8-4.1-4.1 0-2.2 1.8-4.1 4.1-4.1 2.2 0 4.1 1.8 4.1 4.1z" fill="#e8f52f" opacity=".05"/><path id="path16211" d="m18 15.4c0 2-1.6 3.7-3.7 3.7-2 0-3.7-1.6-3.7-3.7 0-2 1.6-3.7 3.7-3.7 2 0 3.7 1.6 3.7 3.7z" fill="#ecf751" opacity=".2083"/><path id="path16213" d="m17.6 15.4c0 1.8-1.5 3.3-3.3 3.3s-3.3-1.5-3.3-3.3 1.5-3.3 3.3-3.3 3.3 1.5 3.3 3.3z" fill="#f0f972" opacity=".3667"/><path id="path16215" d="m17.2 15.4c0 1.6-1.3 2.9-2.9 2.9s-2.9-1.3-2.9-2.9 1.3-2.9 2.9-2.9 2.9 1.3 2.9 2.9z" fill="#f4fa95" opacity=".525"/><path id="path16217" d="m16.8 15.4c0 1.4-1.1 2.5-2.5 2.5s-2.5-1.1-2.5-2.5 1.1-2.5 2.5-2.5 2.5 1.1 2.5 2.5z" fill="#f7fcb7" opacity=".6833"/><path id="path16219" d="m16.4 15.4c0 1.2-1 2.1-2.1 2.1s-2.1-1-2.1-2.1 1-2.1 2.1-2.1 2.1 1 2.1 2.1z" fill="#fbfddb" opacity=".8417"/><path id="path16221" d="m16 15.4c0 1-0.8 1.8-1.8 1.8s-1.8-0.8-1.8-1.8 0.8-1.8 1.8-1.8 1.8 0.8 1.8 1.8z" fill="#fff"/></g></g><path id="path16223" d="m25.016 21.649h8.6813l1.6649 0.47569h-2.8541s2.8541 0.23784 4.2812 2.0217c1.4271 1.6649-1.6649 3.6866-1.6649 3.6866-0.11892-0.35677-0.83245-3.2109-2.2595-4.4001-1.0703-0.95137-2.2595-1.1892-2.2595-1.1892h-5.5893v-0.47569z" opacity=".3"/><path id="path16225" d="m30.724 22.363h-4.9947l9.2759 5.2326z" opacity=".3"/><path id="path16227" d="m25.016 21.768h8.6813l1.3081-0.83245h-2.8541s2.6163-0.47569 2.973-3.4487c0.35676-2.973-4.0433-6.3029-4.0433-6.3029v0.11892c0.11892 0.71353 1.3081 5.7082 0.47569 7.611-0.35677 1.6649-1.4271 2.0217-1.4271 2.0217h-5.4704l0.23784 0.83245z" fill="#515151"/><path id="path16229" d="m30.248 20.46h-4.9947l5.9461-9.0381z" fill="#515151"/></g><path id="rect7675" d="m4.0435 4.2357h91.779c0.34138 0 0.6162 0.35688 0.6162 0.8002v69.86c0 2.7883-16.126 20.863-16.467 20.863h-75.928c-0.34138 0-0.6162-0.35688-0.6162-0.80019v-89.923c0-0.44331 0.27483-0.80019 0.6162-0.80019z" color="#000000" fill="none" stroke="#fff" stroke-width="2.5869"/><rect id="rect8163" x="10.163" y="13.218" width="79.595" height="73.881" color="#000000" fill="none" opacity=".84659" stroke="#4f4f4f" stroke-width="2.5869"/><path id="path2210" d="m77.6 98.615c4.6092 0.9725 21.767-13.354 21.076-25.051-3.5487 7.143-10.802 3.7932-20.129 4.2619 0 0 0.89752 19.315-0.94692 20.789z" color="#000000" fill="url(#linearGradient8169)" fill-rule="evenodd" stroke="url(#linearGradient8177)" stroke-width="2.5869"/><path id="path2247" d="m80.892 92.155c3.1095-2.0158 10.052-6.3275 13.002-11.873-3.6233 2.0047-6.6918 0.61757-12.945 0.56129 0 0 0.36848 9.0267-0.05743 11.311z" color="#000000" fill="none" opacity=".36932" stroke="url(#linearGradient8166)" stroke-width="2.5869"/><path id="rect8150" d="m4.6298 5.8486v65.038c50.682 2.6188 56.348-38.507 90.661-38.507v-26.531z" color="#000000" fill="url(#radialGradient8161)" opacity=".30114"/></svg>
