<?xml version="1.0" encoding="UTF-8"?>
<!-- Created with Inkscape (http://www.inkscape.org/) -->
<svg id="svg3440" width="100" height="100" version="1.1" xmlns="http://www.w3.org/2000/svg" xmlns:cc="http://creativecommons.org/ns#" xmlns:dc="http://purl.org/dc/elements/1.1/" xmlns:rdf="http://www.w3.org/1999/02/22-rdf-syntax-ns#">
 <defs id="defs3">
  <radialGradient id="radialGradient3968" cx="18.248" cy="15.716" r="29.993" gradientTransform="matrix(2.3566 0 0 2.3566 -11.026 -54.222)" gradientUnits="userSpaceOnUse">
   <stop id="stop3964" stop-color="#d3e9ff" offset="0"/>
   <stop id="stop4134" stop-color="#d3e9ff" offset=".15517"/>
   <stop id="stop4346" stop-color="#4074ae" offset=".75"/>
   <stop id="stop3966" stop-color="#36486c" offset="1"/>
  </radialGradient>
  <radialGradient id="radialGradient4132" cx="15.601" cy="12.142" r="43.527" gradientTransform="matrix(2.3566 0 0 2.3566 -11.026 -54.222)" gradientUnits="userSpaceOnUse">
   <stop id="stop4128" stop-color="#fff" offset="0"/>
   <stop id="stop4130" stop-color="#fff" stop-opacity=".16495" offset="1"/>
  </radialGradient>
  <radialGradient id="radialGradient4356" cx="11.827" cy="10.476" r="32.665" gradientTransform="matrix(2.3237 0 0 1.9979 12.274 -54.222)" gradientUnits="userSpaceOnUse">
   <stop id="stop4352" stop-color="#fff" offset="0"/>
   <stop id="stop4354" stop-color="#fff" stop-opacity="0" offset="1"/>
  </radialGradient>
  <radialGradient id="radialGradient4756" cx="18.634" cy="17.486" r="40.693" fx="18.934" fy="17.81" gradientTransform="scale(1.0368 .96449)" gradientUnits="userSpaceOnUse">
   <stop id="stop4752" stop-color="#fff" offset="0"/>
   <stop id="stop4758" stop-color="#fefefe" offset=".37931"/>
   <stop id="stop4754" stop-color="#1d1d1d" offset="1"/>
  </radialGradient>
 </defs>
 <metadata id="metadata4">
  <rdf:RDF>
   <cc:Work rdf:about="">
    <dc:format>image/svg+xml</dc:format>
    <dc:type rdf:resource="http://purl.org/dc/dcmitype/StillImage"/>
    <dc:title/>
    <dc:creator>
     <cc:Agent>
      <dc:title>Jakub Steiner</dc:title>
     </cc:Agent>
    </dc:creator>
    <dc:contributor>
     <cc:Agent>
      <dc:title>Tuomas Kuosmanen</dc:title>
     </cc:Agent>
    </dc:contributor>
    <cc:license rdf:resource="http://creativecommons.org/publicdomain/zero/1.0/"/>
    <dc:source>http://jimmac.musichall.cz</dc:source>
    <dc:subject>
     <rdf:Bag>
      <rdf:li>globe</rdf:li>
      <rdf:li>international</rdf:li>
      <rdf:li>web</rdf:li>
      <rdf:li>www</rdf:li>
      <rdf:li>internet</rdf:li>
      <rdf:li>network</rdf:li>
     </rdf:Bag>
    </dc:subject>
   </cc:Work>
   <cc:License rdf:about="http://creativecommons.org/publicdomain/zero/1.0/">
    <cc:permits rdf:resource="http://creativecommons.org/ns#Reproduction"/>
    <cc:permits rdf:resource="http://creativecommons.org/ns#Distribution"/>
    <cc:permits rdf:resource="http://creativecommons.org/ns#DerivativeWorks"/>
   </cc:License>
  </rdf:RDF>
 </metadata>
 <g id="layer1" transform="matrix(1.0667 0 0 1.0667 0 48.8)">
  <path id="path3214" d="m92.572 1.1234c0 25.238-20.461 45.698-45.696 45.698-25.238 0-45.697-20.46-45.697-45.698 0-25.237 20.459-45.695 45.697-45.695 25.235 0 45.696 20.458 45.696 45.695z" fill="url(#radialGradient3968)" stroke="#39396c" stroke-width="2.3566"/>
  <ellipse id="path4348" cx="47.298" cy="-18.235" rx="25.472" ry="21.901" fill="url(#radialGradient4356)" opacity=".42159"/>
  <g id="g4136" transform="matrix(2.3151 0 0 2.315 -10.741 -53.673)" fill-opacity=".71345">
   <g id="g4138">
    <g id="g4142">
     <path id="path4144" d="m44.071 20.714l-0.5449 0.6172c-0.334-0.3936-0.709-0.7246-1.0898-1.0703l-0.8359 0.123-0.7637-0.8633v1.0684l0.6543 0.4951 0.4355 0.4932 0.582-0.6582c0.1465 0.2744 0.291 0.5488 0.4365 0.8232v0.8223l-0.6553 0.7402-1.1992 0.8232-0.9082 0.9063-0.582-0.6602 0.291-0.7402-0.5811-0.6582-0.9814-2.0977-0.8359-0.9453-0.2188 0.2461 0.3281 1.1934 0.6172 0.6992c0.3525 1.0176 0.7012 1.9902 1.1641 2.9629 0.7178 0 1.3945-0.0762 2.1074-0.166v0.5762l-0.8721 2.1392-0.7998 0.9043-0.6543 1.4004v2.3027l0.2188 0.9063-0.3633 0.4102-0.8008 0.4941-0.8359 0.6992 0.6914 0.7813-0.9453 0.8242 0.1816 0.5332-1.418 1.6055h-0.9443l-0.7998 0.4941h-0.5098v-0.6582l-0.2168-1.3184c-0.2813-0.8262-0.5742-1.6465-0.8721-2.4668 0-0.6055 0.0361-1.2051 0.0723-1.8105l0.3643-0.8223-0.5098-0.9883 0.0371-1.3574-0.6914-0.7813 0.3457-1.1309-0.5625-0.6382h-0.9824l-0.3271-0.3701-0.9814 0.6177-0.3994-0.4536-0.9092 0.7817c-0.6172-0.6997-1.2354-1.3989-1.8535-2.0981l-0.7266-1.7285 0.6543-0.9863-0.3633-0.4111 0.7988-1.8936c0.6563-0.8164 1.3418-1.5996 2.0352-2.3857l1.2363-0.3291 1.3809-0.1641 0.9453 0.2471 1.3447 1.3564 0.4727-0.5342 0.6533-0.082 1.2363 0.4111h0.9453l0.6543-0.5762 0.291-0.4111-0.6553-0.4111-1.0908-0.082c-0.3027-0.4199-0.584-0.8613-0.9434-1.2344l-0.3643 0.1641-0.1455 1.0703-0.6543-0.7402-0.1445-0.8242-0.7266-0.5742h-0.292l0.7275 0.8223-0.291 0.7402-0.5811 0.1641 0.3633-0.7402-0.6553-0.3281-0.5801-0.6582-1.0918 0.2461-0.1445 0.3281-0.6543 0.4121-0.3633 0.9053-0.9082 0.4521-0.4004-0.4521h-0.4355v-1.4814l0.9453-0.4941h0.7266l-0.1465-0.5752-0.5801-0.5762 0.9805-0.2061 0.5449-0.6162 0.4355-0.7412h0.8008l-0.2188-0.5752 0.5098-0.3291v0.6582l1.0898 0.2461 1.0898-0.9043 0.0732-0.4121 0.9443-0.6577c-0.3418 0.0425-0.6836 0.0737-1.0176 0.1646v-0.7411l0.3633-0.8228h-0.3633l-0.7984 0.7402-0.2188 0.4116 0.2188 0.5767-0.3643 0.9863-0.5811-0.3291-0.5078-0.5752-0.8008 0.5752-0.291-1.3159 1.3809-0.9048v-0.4941l0.873-0.5757 1.3809-0.3296 0.9453 0.3296 1.7441 0.3291-0.4355 0.4932h-0.9453l0.9453 0.9873 0.7266-0.8223 0.2207-0.3618s2.7871 2.498 4.3799 5.2305c1.5928 2.7334 2.3408 5.9551 2.3408 6.6094z"/>
    </g>
   </g>
   <g id="g4146">
    <g id="g4150">
     <path id="path4152" d="m26.07 9.2363-0.0732 0.4932 0.5098 0.3291 0.8711-0.5757-0.4355-0.4937-0.582 0.3296-0.29-0.0825"/>
    </g>
   </g>
   <g id="g4154">
    <g id="g4158">
     <path id="path4160" d="m26.87 5.8633-1.8906-0.7407-2.1797 0.2466-2.6904 0.7402-0.5088 0.4941 1.6719 1.1514v0.6582l-0.6543 0.6582 0.873 1.729 0.5801-0.3301 0.7285-1.1514c1.123-0.3472 2.1299-0.7407 3.1973-1.2344l0.873-2.2212"/>
    </g>
   </g>
   <g id="g4162">
    <g id="g4166">
     <path id="path4168" d="m28.833 12.775-0.291-0.7412-0.5098 0.165 0.1465 0.9043 0.6543-0.3281"/>
    </g>
   </g>
   <g id="g4170">
    <g id="g4174">
     <path id="path4176" d="m29.123 12.609-0.1455 0.9883 0.7998-0.165 0.5811-0.5752-0.5088-0.4941c-0.1709-0.4551-0.3672-0.8799-0.5811-1.3164h-0.4355v0.4932l0.29 0.3291v0.7402"/>
    </g>
   </g>
   <g id="g4178">
    <g id="g4182">
     <path id="path4184" d="m18.365 28.242-0.582-1.1523-1.0903-0.2466-0.5815-1.5625-1.4536 0.1641-1.2354-0.9043-1.3091 1.1514v0.1816c-0.396-0.1143-0.8828-0.1299-1.2354-0.3467l-0.291-0.8223v-0.9053l-0.8721 0.082c0.0728-0.5762 0.145-1.1514 0.2183-1.7275h-0.5093l-0.5083 0.6582-0.5093 0.2461-0.7271-0.4102-0.0728-0.9053 0.1455-0.9873 1.0908-0.8223h0.8721l0.145-0.4941 1.0903 0.2461 0.7998 0.9883 0.1455-1.6465 1.3813-1.1514 0.5088-1.2344 1.0176-0.4111 0.5815-0.8223 1.3081-0.248 0.6548-0.9863h-1.9629l1.2358-0.5762h0.8716l1.2363-0.4121 0.1455-0.4922-0.4365-0.4121-0.5088-0.165 0.1455-0.4932-0.3633-0.7402-0.8726 0.3281 0.1455-0.6577-1.0176-0.5762-0.7993 1.3979 0.0723 0.4941-0.7993 0.3301-0.5093 1.0693-0.2178-0.9873-1.3813-0.5762-0.2183-0.7402 1.8174-1.0703 0.7998-0.7402 0.0728-0.9048-0.436-0.2471-0.5815-0.0825-0.3633 0.9053s-0.6079 0.1191-0.7642 0.1577c-1.9961 1.8394-6.0293 5.8101-6.9663 13.306 0.0371 0.1738 0.6792 1.1816 0.6792 1.1816l1.5264 0.9043 1.5264 0.4121 0.6548 0.8232 1.0171 0.7402 0.5815-0.082 0.436 0.1963v0.1328l-0.5811 1.563-0.4365 0.6582 0.1455 0.3301-0.3633 1.2324 1.3086 2.3867 1.3081 1.1523 0.582 0.8223-0.0732 1.7285 0.4365 0.9863-0.4365 1.8926s-0.0342-0.0117 0.0215 0.1777c0.0562 0.1895 2.3291 1.4512 2.4736 1.3438 0.144-0.1094 0.2671-0.2051 0.2671-0.2051l-0.145-0.4102 0.5811-0.5762 0.2183-0.5762 0.9453-0.3301 0.7266-1.8105-0.2178-0.4922 0.5078-0.7402 1.0908-0.248 0.582-1.3164-0.1455-1.6445 0.8721-1.2344 0.1455-1.2344c-1.1934-0.5918-2.377-1.2012-3.5615-1.8105"/>
    </g>
   </g>
   <g id="g4186">
    <g id="g4190">
     <path id="path4192" d="m16.766 9.5649 0.7266 0.4937h0.582v-0.5757l-0.7266-0.3291-0.582 0.4111"/>
    </g>
   </g>
   <g id="g4194">
    <g id="g4198">
     <path id="path4200" d="m14.876 8.9072-0.3638 0.9048h0.7271l0.3638-0.8228c0.3135-0.2217 0.6255-0.4448 0.9448-0.6582l0.7271 0.2471c0.4844 0.3291 0.9688 0.6582 1.4536 0.9868l0.7275-0.6577-0.8003-0.3291-0.3638-0.7407-1.3809-0.1646-0.0728-0.4116-0.6543 0.165-0.2904 0.5758-0.3638-0.7407-0.145 0.3291 0.0728 0.8228-0.5816 0.494"/>
    </g>
   </g>
   <g id="g4222">
    <g id="g4226">
     <path id="path4228" d="m17.492 6.8496 0.3638-0.3286 0.7271-0.1646c0.498-0.2422 0.998-0.4053 1.5264-0.5762l-0.29-0.4937-0.9385 0.1348-0.4434 0.4419-0.731 0.106-0.6499 0.3052-0.3159 0.1528-0.1929 0.2583 0.9443 0.1641"/>
    </g>
   </g>
   <g id="g4230">
    <g id="g4234">
     <path id="path4236" d="m18.728 14.666 0.4365-0.6582-0.6548-0.4932 0.2183 1.1514"/>
    </g>
   </g>
  </g>
  <g id="g3216" transform="matrix(2.3151 0 0 2.315 -11.217 -54.149)" color="#000000" fill="url(#radialGradient4756)" stroke-width="1.0179">
   <g id="g3218" color="#000000">
    <g id="g3222" color="#000000" fill="url(#radialGradient4756)">
     <path id="path3224" d="m44.071 20.714l-0.5449 0.6172c-0.334-0.3936-0.709-0.7246-1.0898-1.0703l-0.8359 0.123-0.7637-0.8633v1.0684l0.6543 0.4951 0.4355 0.4932 0.582-0.6582c0.1465 0.2744 0.291 0.5488 0.4365 0.8232v0.8223l-0.6553 0.7402-1.1992 0.8232-0.9082 0.9063-0.582-0.6602 0.291-0.7402-0.5811-0.6582-0.9814-2.0977-0.8359-0.9453-0.2188 0.2461 0.3281 1.1934 0.6172 0.6992c0.3525 1.0176 0.7012 1.9902 1.1641 2.9629 0.7178 0 1.3945-0.0762 2.1074-0.166v0.5762l-0.8721 2.1392-0.7998 0.9043-0.6543 1.4004v2.3027l0.2188 0.9063-0.3633 0.4102-0.8008 0.4941-0.8359 0.6992 0.6914 0.7813-0.9453 0.8242 0.1816 0.5332-1.418 1.6055h-0.9443l-0.7998 0.4941h-0.5098v-0.6582l-0.2168-1.3184c-0.2813-0.8262-0.5742-1.6465-0.8721-2.4668 0-0.6055 0.0361-1.2051 0.0723-1.8105l0.3643-0.8223-0.5098-0.9883 0.0371-1.3574-0.6914-0.7813 0.3457-1.1309-0.5625-0.6382h-0.9824l-0.3271-0.3701-0.9814 0.6177-0.3994-0.4536-0.9092 0.7817c-0.6172-0.6997-1.2354-1.3989-1.8535-2.0981l-0.7266-1.7285 0.6543-0.9863-0.3633-0.4111 0.7988-1.8936c0.6563-0.8164 1.3418-1.5996 2.0352-2.3857l1.2363-0.3291 1.3809-0.1641 0.9453 0.2471 1.3447 1.3564 0.4727-0.5342 0.6533-0.082 1.2363 0.4111h0.9453l0.6543-0.5762 0.291-0.4111-0.6553-0.4111-1.0908-0.082c-0.3027-0.4199-0.584-0.8613-0.9434-1.2344l-0.3643 0.1641-0.1455 1.0703-0.6543-0.7402-0.1445-0.8242-0.7266-0.5742h-0.292l0.7275 0.8223-0.291 0.7402-0.5811 0.1641 0.3633-0.7402-0.6553-0.3281-0.5801-0.6582-1.0918 0.2461-0.1445 0.3281-0.6543 0.4121-0.3633 0.9053-0.9082 0.4521-0.4004-0.4521h-0.4355v-1.4814l0.9453-0.4941h0.7266l-0.1465-0.5752-0.5801-0.5762 0.9805-0.2061 0.5449-0.6162 0.4355-0.7412h0.8008l-0.2188-0.5752 0.5098-0.3291v0.6582l1.0898 0.2461 1.0898-0.9043 0.0732-0.4121 0.9443-0.6577c-0.3418 0.0425-0.6836 0.0737-1.0176 0.1646v-0.7411l0.3633-0.8228h-0.3633l-0.7984 0.7402-0.2188 0.4116 0.2188 0.5767-0.3643 0.9863-0.5811-0.3291-0.5078-0.5752-0.8008 0.5752-0.291-1.3159 1.3809-0.9048v-0.4941l0.873-0.5757 1.3809-0.3296 0.9453 0.3296 1.7441 0.3291-0.4355 0.4932h-0.9453l0.9453 0.9873 0.7266-0.8223 0.2207-0.3618s2.7871 2.498 4.3799 5.2305c1.5928 2.7334 2.3408 5.9551 2.3408 6.6094z" color="#000000" fill="url(#radialGradient4756)"/>
    </g>
   </g>
   <g id="g3226" color="#000000">
    <g id="g3230" color="#000000" fill="url(#radialGradient4756)">
     <path id="path3232" d="m26.07 9.2363-0.0732 0.4932 0.5098 0.3291 0.8711-0.5757-0.4355-0.4937-0.582 0.3296-0.29-0.0825" color="#000000" fill="url(#radialGradient4756)"/>
    </g>
   </g>
   <g id="g3234" color="#000000">
    <g id="g3238" color="#000000" fill="url(#radialGradient4756)">
     <path id="path3240" d="m26.87 5.8633-1.8906-0.7407-2.1797 0.2466-2.6904 0.7402-0.5088 0.4941 1.6719 1.1514v0.6582l-0.6543 0.6582 0.873 1.729 0.5801-0.3301 0.7285-1.1514c1.123-0.3472 2.1299-0.7407 3.1973-1.2344l0.873-2.2212" color="#000000" fill="url(#radialGradient4756)"/>
    </g>
   </g>
   <g id="g3242" color="#000000">
    <g id="g3246" color="#000000" fill="url(#radialGradient4756)">
     <path id="path3248" d="m28.833 12.775-0.291-0.7412-0.5098 0.165 0.1465 0.9043 0.6543-0.3281" color="#000000" fill="url(#radialGradient4756)"/>
    </g>
   </g>
   <g id="g3250" color="#000000">
    <g id="g3254" color="#000000" fill="url(#radialGradient4756)">
     <path id="path3256" d="m29.123 12.609-0.1455 0.9883 0.7998-0.165 0.5811-0.5752-0.5088-0.4941c-0.1709-0.4551-0.3672-0.8799-0.5811-1.3164h-0.4355v0.4932l0.29 0.3291v0.7402" color="#000000" fill="url(#radialGradient4756)"/>
    </g>
   </g>
   <g id="g3258" color="#000000">
    <g id="g3262" color="#000000" fill="url(#radialGradient4756)">
     <path id="path3264" d="m18.365 28.242-0.582-1.1523-1.0903-0.2466-0.5815-1.5625-1.4536 0.1641-1.2354-0.9043-1.3091 1.1514v0.1816c-0.396-0.1143-0.8828-0.1299-1.2354-0.3467l-0.291-0.8223v-0.9053l-0.8721 0.082c0.0728-0.5762 0.145-1.1514 0.2183-1.7275h-0.5093l-0.5083 0.6582-0.5093 0.2461-0.7271-0.4102-0.0728-0.9053 0.1455-0.9873 1.0908-0.8223h0.8721l0.145-0.4941 1.0903 0.2461 0.7998 0.9883 0.1455-1.6465 1.3813-1.1514 0.5088-1.2344 1.0176-0.4111 0.5815-0.8223 1.3081-0.248 0.6548-0.9863h-1.9629l1.2358-0.5762h0.8716l1.2363-0.4121 0.1455-0.4922-0.4365-0.4121-0.5088-0.165 0.1455-0.4932-0.3633-0.7402-0.8726 0.3281 0.1455-0.6577-1.0176-0.5762-0.7993 1.3979 0.0723 0.4941-0.7993 0.3301-0.5093 1.0693-0.2178-0.9873-1.3813-0.5762-0.2183-0.7402 1.8174-1.0703 0.7998-0.7402 0.0728-0.9048-0.436-0.2471-0.5815-0.0825-0.3633 0.9053s-0.6079 0.1191-0.7642 0.1577c-1.9961 1.8394-6.0293 5.8101-6.9663 13.306 0.0371 0.1738 0.6792 1.1816 0.6792 1.1816l1.5264 0.9043 1.5264 0.4121 0.6548 0.8232 1.0171 0.7402 0.5815-0.082 0.436 0.1963v0.1328l-0.5811 1.563-0.4365 0.6582 0.1455 0.3301-0.3633 1.2324 1.3086 2.3867 1.3081 1.1523 0.582 0.8223-0.0732 1.7285 0.4365 0.9863-0.4365 1.8926s-0.0342-0.0117 0.0215 0.1777c0.0562 0.1895 2.3291 1.4512 2.4736 1.3438 0.144-0.1094 0.2671-0.2051 0.2671-0.2051l-0.145-0.4102 0.5811-0.5762 0.2183-0.5762 0.9453-0.3301 0.7266-1.8105-0.2178-0.4922 0.5078-0.7402 1.0908-0.248 0.582-1.3164-0.1455-1.6445 0.8721-1.2344 0.1455-1.2344c-1.1934-0.5918-2.377-1.2012-3.5615-1.8105" color="#000000" fill="url(#radialGradient4756)"/>
    </g>
   </g>
   <g id="g3266" color="#000000">
    <g id="g3270" color="#000000" fill="url(#radialGradient4756)">
     <path id="path3272" d="m16.766 9.5649 0.7266 0.4937h0.582v-0.5757l-0.7266-0.3291-0.582 0.4111" color="#000000" fill="url(#radialGradient4756)"/>
    </g>
   </g>
   <g id="g3274" color="#000000">
    <g id="g3278" color="#000000" fill="url(#radialGradient4756)">
     <path id="path3280" d="m14.876 8.9072-0.3638 0.9048h0.7271l0.3638-0.8228c0.3135-0.2217 0.6255-0.4448 0.9448-0.6582l0.7271 0.2471c0.4844 0.3291 0.9688 0.6582 1.4536 0.9868l0.7275-0.6577-0.8003-0.3291-0.3638-0.7407-1.3809-0.1646-0.0728-0.4116-0.6543 0.165-0.2904 0.5758-0.3638-0.7407-0.145 0.3291 0.0728 0.8228-0.5816 0.494" color="#000000" fill="url(#radialGradient4756)"/>
    </g>
   </g>
   <g id="g3302" color="#000000">
    <g id="g3306" color="#000000" fill="url(#radialGradient4756)">
     <path id="path3308" d="m17.492 6.8496 0.3638-0.3286 0.7271-0.1646c0.498-0.2422 0.998-0.4053 1.5264-0.5762l-0.29-0.4937-0.9385 0.1348-0.4434 0.4419-0.731 0.106-0.6499 0.3052-0.3159 0.1528-0.1929 0.2583 0.9443 0.1641" color="#000000" fill="url(#radialGradient4756)"/>
    </g>
   </g>
   <g id="g3310" color="#000000">
    <g id="g3314" color="#000000" fill="url(#radialGradient4756)">
     <path id="path3316" d="m18.728 14.666 0.4365-0.6582-0.6548-0.4932 0.2183 1.1514" color="#000000" fill="url(#radialGradient4756)"/>
    </g>
   </g>
  </g>
  <path id="path4122" d="m90.251 1.1235c0 23.957-19.422 43.377-43.375 43.377-23.956 0-43.377-19.421-43.377-43.377s19.42-43.374 43.377-43.374c23.954 0 43.375 19.419 43.375 43.374z" fill="none" stroke="url(#radialGradient4132)" stroke-width="2.3566"/>
 </g>
</svg>
