<?xml version="1.0" encoding="UTF-8"?>
<!-- Created with Inkscape (http://www.inkscape.org/) -->
<svg id="svg2108" width="100" height="100" version="1.1" xmlns="http://www.w3.org/2000/svg" xmlns:cc="http://creativecommons.org/ns#" xmlns:dc="http://purl.org/dc/elements/1.1/" xmlns:rdf="http://www.w3.org/1999/02/22-rdf-syntax-ns#" xmlns:xlink="http://www.w3.org/1999/xlink">
 <defs id="defs3">
  <linearGradient id="linearGradient4356">
   <stop id="stop4358" offset="0"/>
   <stop id="stop4360" stop-opacity="0" offset="1"/>
  </linearGradient>
  <linearGradient id="linearGradient3824">
   <stop id="stop3826" stop-color="#fff" offset="0"/>
   <stop id="stop3828" stop-color="#c9c9c9" offset="1"/>
  </linearGradient>
  <radialGradient id="radialGradient3822" cx="31.113" cy="19.009" r="8.6621" gradientTransform="matrix(2.5862 0 0 2.9086 -33.532 -64.292)" gradientUnits="userSpaceOnUse">
   <stop id="stop3818" offset="0"/>
   <stop id="stop3820" stop-opacity="0" offset="1"/>
  </radialGradient>
  <linearGradient id="linearGradient3830" x1="30.936" x2="30.936" y1="29.553" y2="35.803" gradientTransform="matrix(2.5862 0 0 2.9086 -33.209 -74.472)" gradientUnits="userSpaceOnUse" xlink:href="#linearGradient3824"/>
  <radialGradient id="radialGradient4169" cx="28.09" cy="27.203" r="13.565" gradientTransform="matrix(3.3557 0 0 2.5736 -54.826 -60.103)" gradientUnits="userSpaceOnUse">
   <stop id="stop4165" stop-color="#3b74bc" offset="0"/>
   <stop id="stop4167" stop-color="#2d5990" offset="1"/>
  </radialGradient>
  <radialGradient id="radialGradient4171" cx="29.345" cy="17.064" r="9.1621" gradientTransform="matrix(2.0379 0 0 2.2919 -17.12 -63.95)" gradientUnits="userSpaceOnUse">
   <stop id="stop3802" stop-color="#f4d9b1" offset="0"/>
   <stop id="stop3804" stop-color="#df9725" offset="1"/>
  </radialGradient>
  <linearGradient id="linearGradient4362" x1="20.662" x2="22.627" y1="35.818" y2="36.218" gradientTransform="matrix(2.5432 .52816 -.46962 2.8602 -17.093 -82.184)" gradientUnits="userSpaceOnUse" xlink:href="#linearGradient4356"/>
  <linearGradient id="linearGradient4366" x1="22.687" x2="21.408" y1="36.39" y2="35.74" gradientTransform="matrix(-2.5285 .61102 .54329 2.8437 109.31 -85.947)" gradientUnits="userSpaceOnUse" xlink:href="#linearGradient4356"/>
  <linearGradient id="linearGradient1366" x1="22.687" x2="21.408" y1="36.39" y2="35.74" gradientTransform="matrix(-2.5285 .61102 .54329 2.8437 74.908 -106.81)" gradientUnits="userSpaceOnUse" xlink:href="#linearGradient4356"/>
  <linearGradient id="linearGradient1372" x1="30.936" x2="30.936" y1="29.553" y2="35.803" gradientTransform="matrix(2.5862 0 0 2.9086 -65.324 -94.832)" gradientUnits="userSpaceOnUse" xlink:href="#linearGradient3824"/>
 </defs>
 <metadata id="metadata4">
  <rdf:RDF>
   <cc:Work rdf:about="">
    <dc:format>image/svg+xml</dc:format>
    <dc:type rdf:resource="http://purl.org/dc/dcmitype/StillImage"/>
    <dc:title/>
    <dc:creator>
     <cc:Agent>
      <dc:title>Jakub Steiner</dc:title>
     </cc:Agent>
    </dc:creator>
    <dc:source>http://jimmac.musichall.cz</dc:source>
    <dc:subject>
     <rdf:Bag>
      <rdf:li>users</rdf:li>
      <rdf:li>people</rdf:li>
     </rdf:Bag>
    </dc:subject>
    <cc:license rdf:resource="http://creativecommons.org/publicdomain/zero/1.0/"/>
   </cc:Work>
   <cc:License rdf:about="http://creativecommons.org/publicdomain/zero/1.0/">
    <cc:permits rdf:resource="http://creativecommons.org/ns#Reproduction"/>
    <cc:permits rdf:resource="http://creativecommons.org/ns#Distribution"/>
    <cc:permits rdf:resource="http://creativecommons.org/ns#DerivativeWorks"/>
   </cc:License>
  </rdf:RDF>
 </metadata>
 <g id="layer2" transform="matrix(1.0667 0 0 1.0667 0 48.8)">
  <path id="path4173" d="m25.197 4.1596h10.972l-6.4005-6.6842-1.3715 2.0567-1.3715-1.5425z" color="#000000" fill="url(#linearGradient1372)" fill-rule="evenodd"/>
  <path id="path4370" d="m37.791 20.764c3.1842-1.6898 4.6664-5.8239 4.6664-5.8239-2.4805-11.759-10.283-19.903-10.283-19.903s6.3739 18.448 5.6166 25.727z" color="#000000" fill="url(#linearGradient1366)" fill-rule="evenodd" opacity=".22785"/>
  <path id="path4308" d="m33.996 46.629h27.431c7.772 0 15.467-3.205 18.287-12.34 2.6783-8.6747 0.45717-25.194-16.915-38.562h-32.459c-17.373 12.34-19.544 29.216-15.544 39.077 4.0748 10.046 10.972 11.826 19.201 11.826z" color="#000000" fill="url(#radialGradient4169)" fill-rule="evenodd" stroke="#204a87" stroke-linecap="round" stroke-linejoin="round" stroke-width="2.7426px"/>
  <path id="path4310" d="m35.825 0.35374c8.2292 8.2267 11.887 38.048 11.887 38.048s3.6574-29.822 10.058-38.562z" color="#000000" fill="url(#linearGradient3830)" fill-rule="evenodd"/>
  <path id="path4312" d="m41.72 3.4387s-5.5637 4.8292-5.0844 10.647c-5.279-5.2377-5.4306-15.274-5.4306-15.274z" color="#000000" fill="#729fcf" fill-rule="evenodd"/>
  <path id="path4314" d="m33.811 43.598 27.138-0.06427c6.8268 0 13.586-2.8153 16.063-10.839 2.3526-7.6197-0.24496-22.13-15.505-33.873l-29.805-0.70697c-15.26 10.839-18.213 25.663-14.643 35.031 3.5705 9.3684 8.7806 10.388 16.752 10.452z" color="#000000" fill="none" opacity=".21519" stroke="#fff" stroke-linecap="round" stroke-linejoin="round" stroke-width="2.7426px"/>
  <path id="path4316" d="m53.197 3.4387s5.5637 4.8292 5.0844 10.647c5.279-5.2377 5.4306-15.274 5.4306-15.274z" color="#000000" fill="#729fcf" fill-rule="evenodd"/>
  <ellipse id="path4318" cx="46.931" cy="-9.0046" rx="22.402" ry="25.194" color="#000000" fill="url(#radialGradient3822)" fill-rule="evenodd"/>
  <ellipse id="path4320" cx="47.254" cy="-19.185" rx="22.402" ry="25.194" color="#000000" fill="url(#radialGradient4171)" fill-rule="evenodd" stroke="#c17d11" stroke-linecap="round" stroke-linejoin="round" stroke-width="2.7426px"/>
  <ellipse id="path4322" cx="47.254" cy="-19.185" rx="19.648" ry="22.098" color="#000000" fill="none" opacity=".1962" stroke="#fff" stroke-linecap="round" stroke-linejoin="round" stroke-width="2.7426px"/>
  <path id="path4354" d="m23.304 44.125c-3.2265-1.5851-4.6706-5.4049-4.6706-5.4049 2.1757-11.835 9.6204-20.494 9.6204-20.494s-5.8947 18.648-4.9498 25.899z" color="#000000" fill="url(#linearGradient4362)" fill-rule="evenodd" opacity=".22785"/>
  <path id="path4364" d="m72.197 41.628c3.1842-1.6898 4.6664-5.8239 4.6664-5.8239-2.4805-11.759-10.283-19.903-10.283-19.903s6.3739 18.448 5.6166 25.727z" color="#000000" fill="url(#linearGradient4366)" fill-rule="evenodd" opacity=".22785"/>
 </g>
</svg>
