<?xml version="1.0" encoding="UTF-8"?>
<!-- Created with Inkscape (http://www.inkscape.org/) -->
<svg id="svg53383" width="100" height="100" version="1.1" xmlns="http://www.w3.org/2000/svg" xmlns:cc="http://creativecommons.org/ns#" xmlns:dc="http://purl.org/dc/elements/1.1/" xmlns:rdf="http://www.w3.org/1999/02/22-rdf-syntax-ns#">
 <defs id="defs3">
  <linearGradient id="linearGradient3773" x1="99.777" x2="153" y1="15.424" y2="248.63" gradientTransform="matrix(.41027 0 0 .41024 -113.01 -48.806)" gradientUnits="userSpaceOnUse">
   <stop id="stop53300" stop-color="#184375" offset="0"/>
   <stop id="stop53302" stop-color="#C8BDDC" offset="1"/>
  </linearGradient>
 </defs>
 <metadata id="metadata4">
  <rdf:RDF>
   <cc:Work rdf:about="">
    <dc:format>image/svg+xml</dc:format>
    <dc:type rdf:resource="http://purl.org/dc/dcmitype/StillImage"/>
    <dc:title/>
    <dc:creator>
     <cc:Agent>
      <dc:title>Jakub Steiner</dc:title>
     </cc:Agent>
    </dc:creator>
    <dc:source>http://jimmac.musichall.cz/</dc:source>
    <dc:subject>
     <rdf:Bag>
      <rdf:li>system</rdf:li>
      <rdf:li>applications</rdf:li>
      <rdf:li>group</rdf:li>
      <rdf:li>category</rdf:li>
      <rdf:li>admin</rdf:li>
      <rdf:li>root</rdf:li>
     </rdf:Bag>
    </dc:subject>
    <cc:license rdf:resource="http://creativecommons.org/publicdomain/zero/1.0/"/>
   </cc:Work>
   <cc:License rdf:about="http://creativecommons.org/publicdomain/zero/1.0/">
    <cc:permits rdf:resource="http://creativecommons.org/ns#Reproduction"/>
    <cc:permits rdf:resource="http://creativecommons.org/ns#Distribution"/>
    <cc:permits rdf:resource="http://creativecommons.org/ns#DerivativeWorks"/>
   </cc:License>
  </rdf:RDF>
 </metadata>
 <g id="layer1" transform="matrix(1.0667 0 0 1.0667 0 48.8)" stroke-width="2.0443">
  <path id="path3243" d="m44.472-44.721c-0.96733 0.06618-1.9075 0.21599-2.8577 0.32471h-0.06494l-2.2732 12.404c-3.7051 0.84371-7.1908 2.2756-10.327 4.2212l-10.197-7.3385c-2.7564 2.1399-5.2648 4.6355-7.469 7.3385l7.0793 10.326c-2.1495 3.2846-3.7658 7.035-4.6762 10.975-1.54e-4 0.0186-1.26e-4 0.0617 0 0.06494l-12.34 1.9483c-0.22561 1.8426-0.32474 3.7468-0.32474 5.65 0 1.5572 0.042998 3.0935 0.19484 4.6109l12.34 2.208c0.87763 4.2849 2.5448 8.2867 4.8711 11.82l-7.3391 10.066c2.1019 2.6092 4.5284 4.9847 7.1442 7.0787l10.392-7.1437c3.6317 2.3166 7.6858 3.941 12.08 4.7408l1.9484 12.274c1.3845 0.12602 2.8044 0.12989 4.2216 0.12989 2.0008-1e-6 3.9119-0.07582 5.8453-0.32471l2.3381-12.534c4.1723-1.0382 8.0919-2.8394 11.496-5.2603l10.002 7.2735c2.5938-2.2066 4.9657-4.7429 7.0143-7.4684l-7.2741-10.521c1.9699-3.4019 3.3349-7.1554 4.0267-11.17l12.275-1.9483c0.10765-1.2809 0.1299-2.5231 0.1299-3.8316 0-2.2739-0.26433-4.5035-0.58452-6.6891l-12.47-2.273c-0.97721-3.6081-2.5806-6.9745-4.6113-10.001l7.3391-10.066c-2.2749-2.7818-4.8699-5.3516-7.7287-7.5333l-10.586 7.2735c-3.0426-1.7993-6.317-3.18-9.872-3.9615l-1.9484-12.339c-1.7734-0.2086-3.5614-0.32471-5.3906-0.32471-0.49437 0-1.0032-0.01555-1.4938 0-0.23918 0.0076-0.47586-0.01391-0.71442 0-0.0646 0.0038-0.13035-0.0044-0.19485 0zm1.6886 31.562c0.23727-0.01207 0.47417 0 0.71442 0 7.688 0 13.964 6.2752 13.964 13.963 1e-6 7.6874-6.2757 13.898-13.964 13.898-7.688 1e-6 -13.899-6.2103-13.899-13.898 2e-6 -7.4471 5.8288-13.589 13.184-13.963z" color="#000000" fill="url(#linearGradient3773)" stroke="#3f4561" stroke-linecap="round" stroke-linejoin="round"/>
  <ellipse id="path3283" cx="46.883" cy=".77433" rx="16.044" ry="16.043" color="#000000" fill="none" opacity=".64773" stroke="#fff"/>
  <path id="path3285" d="m43.033-42.266-1.8252 12.01c-3.4729 0.79083-9.861 3.2095-12.8 5.0333l-9.71-7.2469c-2.5837 2.0057-2.7609 2.1418-4.8269 4.6753l7.0207 10.411c-2.0147 3.0787-4.4347 8.5651-5.3036 12.486l-12.302 2.0737c-0.21147 1.7271-0.10984 5.4236 0.032491 6.8459l11.751 2.1168c0.82263 4.0164 3.9011 10.481 6.0815 13.793l-7.4312 9.8173c1.9701 2.4456 2.3644 2.6694 4.8163 4.6322l9.9368-7.2794c3.4041 2.1714 10.161 4.8128 14.28 5.5625l1.6308 11.858c1.2978 0.11811 4.883 0.44946 6.6952 0.21617l1.8251-12.345c3.9109-0.97318 10.668-3.7468 13.859-6.0161l9.9261 7.1713c2.4312-2.0683 2.453-2.3799 4.3733-4.9346l-7.3556-10.455c1.8465-3.1887 4.234-9.4249 4.8825-13.188l12.043-1.9981c0.10084-1.2006 0.10581-4.5486-0.19434-6.5972l-12.27-2.1168c-0.91597-3.382-4.0594-9.4764-5.9628-12.313l7.7986-9.8173c-2.1323-2.6075-2.9251-2.9653-5.6048-5.0102l-10.272 7.355c-2.852-1.6866-8.539-4.2576-11.871-4.9902l-1.8145-11.75c-1.6623-0.19552-6.4581-0.1087-7.4081 0z" color="#000000" fill="none" opacity=".34659" stroke="#fff"/>
 </g>
</svg>
