<?xml version="1.0" encoding="UTF-8"?>
<!-- Created with Inkscape (http://www.inkscape.org/) -->
<svg id="svg1328" width="100" height="100" version="1.1" xmlns="http://www.w3.org/2000/svg" xmlns:cc="http://creativecommons.org/ns#" xmlns:dc="http://purl.org/dc/elements/1.1/" xmlns:rdf="http://www.w3.org/1999/02/22-rdf-syntax-ns#">
 <defs id="defs3">
  <linearGradient id="linearGradient4140" x1="9.3031" x2="38.826" y1="26.719" y2="26.719" gradientTransform="matrix(3.1616 0 0 2.5518 -29.208 -67.057)" gradientUnits="userSpaceOnUse">
   <stop id="stop4136" stop-color="#7e807a" offset="0"/>
   <stop id="stop4148" stop-color="#babbb8" offset=".25"/>
   <stop id="stop4142" stop-color="#a5a6a3" offset=".5"/>
   <stop id="stop4138" stop-color="#333432" offset="1"/>
  </linearGradient>
  <linearGradient id="linearGradient4160" x1="24" x2="24" y1="16.525" y2="13.285" gradientTransform="matrix(3.2795 0 0 2.436 -32.037 -62.876)" gradientUnits="userSpaceOnUse">
   <stop id="stop6934" stop-color="#fff" offset="0"/>
   <stop id="stop6936" stop-color="#e7e6ae" offset="1"/>
  </linearGradient>
  <linearGradient id="linearGradient4168" x1="10.116" x2="38.013" y1="17.512" y2="17.512" gradientTransform="matrix(3.1616 0 0 2.5518 -29.208 -67.057)" gradientUnits="userSpaceOnUse">
   <stop id="stop4164" stop-color="#f79403" offset="0"/>
   <stop id="stop4170" stop-color="#fdb343" offset=".18692"/>
   <stop id="stop4172" stop-color="#fdb74f" offset=".43008"/>
   <stop id="stop4166" stop-color="#8f5601" offset="1"/>
  </linearGradient>
  <linearGradient id="linearGradient4182" x1="17.16" x2="37.969" y1="14.004" y2="56.576" gradientTransform="matrix(3.1616 0 0 2.5518 -29.208 -67.057)" gradientUnits="userSpaceOnUse">
   <stop id="stop4178" stop-color="#fff" offset="0"/>
   <stop id="stop4180" stop-color="#fff" stop-opacity="0" offset="1"/>
  </linearGradient>
  <linearGradient id="linearGradient4198" x1="25.065" x2="25.208" y1="21.857" y2="25.429" gradientTransform="matrix(3.1616 0 0 2.5518 -29.208 -67.057)" gradientUnits="userSpaceOnUse">
   <stop id="stop4208" stop-color="#7d4b01" offset="0"/>
   <stop id="stop4210" stop-color="#535353" offset="1"/>
  </linearGradient>
  <linearGradient id="linearGradient6930" x1="16.071" x2="15.786" y1="19.5" y2="30" gradientTransform="matrix(3.1616 0 0 2.5518 -29.659 -60.313)" gradientUnits="userSpaceOnUse">
   <stop id="stop6926" stop-color="#fff" offset="0"/>
   <stop id="stop6928" stop-color="#fff" stop-opacity="0" offset="1"/>
  </linearGradient>
 </defs>
 <metadata id="metadata4">
  <rdf:RDF>
   <cc:Work rdf:about="">
    <dc:format>image/svg+xml</dc:format>
    <dc:type rdf:resource="http://purl.org/dc/dcmitype/StillImage"/>
    <dc:title/>
    <dc:creator>
     <cc:Agent>
      <dc:title>Jakub Steiner</dc:title>
     </cc:Agent>
    </dc:creator>
    <dc:source>http://jimmac.musichall.cz</dc:source>
    <dc:subject>
     <rdf:Bag>
      <rdf:li>battery</rdf:li>
      <rdf:li>apm</rdf:li>
      <rdf:li>acpi</rdf:li>
      <rdf:li>power management</rdf:li>
     </rdf:Bag>
    </dc:subject>
    <cc:license rdf:resource="http://creativecommons.org/publicdomain/zero/1.0/"/>
   </cc:Work>
   <cc:License rdf:about="http://creativecommons.org/publicdomain/zero/1.0/">
    <cc:permits rdf:resource="http://creativecommons.org/ns#Reproduction"/>
    <cc:permits rdf:resource="http://creativecommons.org/ns#Distribution"/>
    <cc:permits rdf:resource="http://creativecommons.org/ns#DerivativeWorks"/>
   </cc:License>
  </rdf:RDF>
 </metadata>
 <g id="layer1" transform="matrix(1.0667 0 0 1.0667 0 48.8)">
  <path id="path3068" d="m46.473-44.33c-24.848 0-45.053 7.1516-45.053 15.949v59.011c0 8.7975 20.204 15.949 45.053 15.949 24.848 0 45.857-7.1516 45.857-15.949v-59.011c0-8.7975-21.009-15.949-45.857-15.949z" color="#000000" display="block" fill="url(#linearGradient4140)" stroke="url(#linearGradient4198)" stroke-miterlimit="10" stroke-width="2.8404"/>
  <path id="path4152" d="m46.485-43.675c-24.108 0-43.71 6.9384-43.71 15.474v16.735c0 8.5353 19.602 14.413 43.71 14.413s44.49-5.8773 44.49-14.413v-16.735c0-8.5352-20.383-15.474-44.49-15.474z" color="#000000" display="block" fill="url(#linearGradient4168)"/>
  <path id="path4174" d="m46.5-42.341c-23.167 0-42.005 6.6678-42.005 14.87v56.463c0 8.2024 18.838 14.87 42.005 14.87s42.755-6.6678 42.755-14.87v-56.463c0-8.2024-19.588-14.87-42.755-14.87z" color="#000000" display="block" fill="none" opacity=".5443" stroke="url(#linearGradient4182)" stroke-miterlimit="10" stroke-width="2.8404"/>
  <ellipse id="path3364" cx="46.67" cy="-28.597" rx="42.165" ry="13.398" color="#000000" display="block" fill="#fed496" stroke="url(#linearGradient4160)" stroke-miterlimit="10" stroke-width="2.8404"/>
  <path id="path6922" d="m13.925-16.749 1.1291 42.835 14.453 3.2809-0.45165-42.652s6.549 0 17.163-0.54682c-16.49-0.59477-35.357-6.315-41.778-10.025 4.4796 5.3389 9.4847 7.1087 9.4847 7.1087z" color="#000000" display="block" fill="url(#linearGradient6930)" opacity=".49367"/>
 </g>
</svg>
