<?xml version="1.0" encoding="UTF-8"?>
<!-- Created with Inkscape (http://www.inkscape.org/) -->
<svg id="svg97" width="100" height="100" version="1.1" xmlns="http://www.w3.org/2000/svg" xmlns:cc="http://creativecommons.org/ns#" xmlns:dc="http://purl.org/dc/elements/1.1/" xmlns:rdf="http://www.w3.org/1999/02/22-rdf-syntax-ns#">
 <defs id="defs3">
  <radialGradient id="radialGradient238" cx="20.706" cy="37.518" r="30.905" gradientTransform="matrix(2.4139 .038648 .32601 3.1964 -12.115 -82.733)" gradientUnits="userSpaceOnUse">
   <stop id="stop1790" stop-color="#202020" offset="0"/>
   <stop id="stop1791" stop-color="#b9b9b9" offset="1"/>
  </radialGradient>
  <linearGradient id="linearGradient491" x1="6.2298" x2="9.8981" y1="13.773" y2="66.834" gradientTransform="matrix(1.5168 0 0 .70898 -.87957 -1.3182)" gradientUnits="userSpaceOnUse">
   <stop id="stop3984" stop-color="#fff" stop-opacity=".87629" offset="0"/>
   <stop id="stop3985" stop-color="#fffffe" stop-opacity="0" offset="1"/>
  </linearGradient>
  <linearGradient id="linearGradient322" x1="13.036" x2="12.854" y1="32.567" y2="46.689" gradientTransform="matrix(2.9877 0 0 2.0759 -8.1032 -59.391)" gradientUnits="userSpaceOnUse">
   <stop id="stop320" stop-color="#fff" offset="0"/>
   <stop id="stop321" stop-color="#fff" stop-opacity="0" offset="1"/>
  </linearGradient>
  <linearGradient id="linearGradient3104" x1="18.113" x2="15.515" y1="31.368" y2="6.1803" gradientTransform="matrix(2.2859 0 0 2.5538 -6.9115 -56.477)" gradientUnits="userSpaceOnUse">
   <stop id="stop3098" stop-color="#424242" offset="0"/>
   <stop id="stop3100" stop-color="#777" offset="1"/>
  </linearGradient>
  <linearGradient id="linearGradient3350" x1="28.238" x2="28.753" y1="40.013" y2="17.488" gradientTransform="matrix(2.2677 0 0 2.5432 -6.1085 -56.039)" gradientUnits="userSpaceOnUse">
   <stop id="stop3346" stop-color="#fecf8c" offset="0"/>
   <stop id="stop3352" stop-color="#fcba58" offset=".18421"/>
   <stop id="stop3348" stop-color="#fdc572" offset="1"/>
  </linearGradient>
 </defs>
 <metadata id="metadata4">
  <rdf:RDF>
   <cc:Work rdf:about="">
    <dc:format>image/svg+xml</dc:format>
    <dc:type rdf:resource="http://purl.org/dc/dcmitype/StillImage"/>
    <dc:title/>
    <dc:date/>
    <dc:creator>
     <cc:Agent>
      <dc:title>Jakub Steiner</dc:title>
     </cc:Agent>
    </dc:creator>
    <cc:license rdf:resource="http://creativecommons.org/publicdomain/zero/1.0/"/>
    <dc:source>http://jimmac.musichall.cz</dc:source>
    <dc:subject>
     <rdf:Bag>
      <rdf:li>folder</rdf:li>
      <rdf:li>directory</rdf:li>
      <rdf:li>home</rdf:li>
      <rdf:li>user</rdf:li>
     </rdf:Bag>
    </dc:subject>
    <dc:contributor>
     <cc:Agent>
      <dc:title>Garrett LeSage</dc:title>
     </cc:Agent>
    </dc:contributor>
   </cc:Work>
   <cc:License rdf:about="http://creativecommons.org/publicdomain/zero/1.0/">
    <cc:permits rdf:resource="http://creativecommons.org/ns#Reproduction"/>
    <cc:permits rdf:resource="http://creativecommons.org/ns#Distribution"/>
    <cc:permits rdf:resource="http://creativecommons.org/ns#DerivativeWorks"/>
   </cc:License>
  </rdf:RDF>
 </metadata>
 <g id="layer1" transform="matrix(1.0667 0 0 1.0667 0 48.8)">
  <path id="path216" d="m3.4249 42.324c0.049822 1.0632 1.0513 2.1263 2.0029 2.1263h71.61c0.95162 0 1.8534-1.0632 1.8036-2.1263l-2.1406-69.532c-0.04983-1.0632-1.0513-2.1264-2.0029-2.1264h-30.336c-1.1088 0-2.8219-0.80596-3.204-2.8261l-1.3976-7.3884c-0.35539-1.8788-2.0166-2.6506-2.9683-2.6506h-33.783c-0.95165 0-1.8535 1.0632-1.8036 2.1263z" fill="url(#radialGradient238)" stroke="url(#linearGradient3104)" stroke-linecap="round" stroke-linejoin="round" stroke-width="2.4124"/>
  <g id="g3953" transform="matrix(2.2835 0 0 2.5485 -6.7884 -56.217)">
   <path id="path9784" d="m5.0422 18.562h30.447" color="#000000" fill="#729fcf" opacity=".11364" stroke="#000" stroke-linecap="round" stroke-linejoin="round"/>
   <path id="path9778" d="m4.9807 12.562h30.507" color="#000000" fill="#729fcf" opacity=".11364" stroke="#000" stroke-linecap="round" stroke-linejoin="round"/>
   <path id="path9788" d="m5.2266 22.562h30.266" color="#000000" fill="#729fcf" opacity=".11364" stroke="#000" stroke-linecap="round" stroke-linejoin="round"/>
   <path id="path9798" d="m5.3862 32.562h30.109" color="#000000" fill="#729fcf" opacity=".11364" stroke="#000" stroke-linecap="round" stroke-linejoin="round"/>
   <path id="path9800" d="m5.5091 34.562h29.988" color="#000000" fill="#729fcf" opacity=".11364" stroke="#000" stroke-linecap="round" stroke-linejoin="round"/>
   <path id="path9782" d="m5.0422 16.562h30.447" color="#000000" fill="#729fcf" opacity=".11364" stroke="#000" stroke-linecap="round" stroke-linejoin="round"/>
   <path id="path9786" d="m5.1959 20.562h30.296" color="#000000" fill="#729fcf" opacity=".11364" stroke="#000" stroke-linecap="round" stroke-linejoin="round"/>
   <path id="path9780" d="m5.0114 14.562h30.477" color="#000000" fill="#729fcf" opacity=".11364" stroke="#000" stroke-linecap="round" stroke-linejoin="round"/>
   <g id="g220" transform="matrix(1.0408 0 .054493 1.0408 -8.5394 2.4525)" fill="#fff" fill-opacity=".75706" stroke-width=".99947">
    <path id="path221" d="m42.417 8.5152c0.0051-0.097113-0.12816-0.24699-0.23512-0.24701l-13.031-0.00212s0.91171 0.58795 2.2018 0.59624l11.053 0.07102c0.01109-0.21173 0.0027-0.25603 0.01121-0.41814z" fill="#fff" fill-opacity=".50847"/>
   </g>
   <path id="path9790" d="m5.2266 24.562h30.266" color="#000000" fill="#729fcf" opacity=".11364" stroke="#000" stroke-linecap="round" stroke-linejoin="round"/>
   <path id="path9796" d="m5.3247 30.562h30.169" color="#000000" fill="#729fcf" opacity=".11364" stroke="#000" stroke-linecap="round" stroke-linejoin="round"/>
   <path id="path9794" d="m5.3247 28.562h30.169" color="#000000" fill="#729fcf" opacity=".11364" stroke="#000" stroke-linecap="round" stroke-linejoin="round"/>
   <path id="path9802" d="m5.5091 36.562h29.988" color="#000000" fill="#729fcf" opacity=".11364" stroke="#000" stroke-linecap="round" stroke-linejoin="round"/>
   <path id="path219" d="m6.0683 38.864c0.016343 0.31223-0.18091 0.52038-0.49858 0.4163-0.31768-0.10408-0.53673-0.31223-0.55308-0.62446l-0.94772-32.064c-0.016343-0.31223 0.16519-0.50077 0.47741-0.50077l14.422-0.047694c0.31223 0 0.93194 0.30047 1.1329 1.3222l0.57349 2.8155c-0.42705-0.46526-0.41919-0.47962-0.63756-1.1567l-0.4061-1.2592c-0.21905-0.72765-0.6982-0.8319-1.0104-0.8319h-12.888c-0.31223 0-0.50948 0.20815-0.49313 0.52039l0.93801 31.515z" color="#000000" display="block" fill="url(#linearGradient491)" opacity=".45143"/>
   <path id="path9792" d="m5.2881 26.562h30.205" color="#000000" fill="#729fcf" opacity=".11364" stroke="#000" stroke-linecap="round" stroke-linejoin="round"/>
   <path id="path9774" d="m4.8738 8.5625h14.784" color="#000000" fill="#729fcf" opacity=".11364" stroke="#000" stroke-linecap="round" stroke-linejoin="round"/>
   <path id="path9776" d="m4.9221 10.562h15.281" color="#000000" fill="#729fcf" opacity=".11364" stroke="#000" stroke-linecap="round" stroke-linejoin="round"/>
  </g>
  <path id="path233" d="m84.11 44.443c2.5941-0.11205 4.4518-2.7881 4.6421-5.9027 1.7956-29.37 3.763-53.996 3.763-53.996 0.16362-0.62939-0.38078-1.2588-1.0888-1.2588h-77.945s-4.196 55.611-4.196 55.611c-0.25978 2.4976-1.0568 4.5897-3.5146 5.5536l78.339-0.0069z" color="#000000" display="block" fill="url(#linearGradient3350)" stroke="#ce5c00" stroke-linejoin="round" stroke-width="2.4124"/>
  <path id="path304" d="m15.708-14.168 74.362 0.16482-3.5695 50.868c-0.19122 2.725-1.022 3.6322-4.2467 3.6322-4.2441 0-65.034-0.08242-71.195-0.08242 0.52974-0.81588 0.75687-2.5142 0.75991-2.5549z" fill="none" opacity=".46591" stroke="url(#linearGradient322)" stroke-linecap="round" stroke-width="2.4124px"/>
  <path id="path323" d="m15.708-14.781-2.6457 39.783s18.814-10.549 42.33-10.549c23.517 0 35.275-29.234 35.275-29.234z" fill="#fff" fill-opacity=".089286" fill-rule="evenodd"/>
 </g>
</svg>
