<?xml version="1.0" encoding="UTF-8"?>
<!-- Created with Inkscape (http://www.inkscape.org/) -->
<svg id="svg2" width="100" height="100" version="1.0" xmlns="http://www.w3.org/2000/svg" xmlns:cc="http://creativecommons.org/ns#" xmlns:dc="http://purl.org/dc/elements/1.1/" xmlns:rdf="http://www.w3.org/1999/02/22-rdf-syntax-ns#" xmlns:xlink="http://www.w3.org/1999/xlink">
 <defs id="defs4">
  <linearGradient id="linearGradient8543">
   <stop id="stop8545" stop-color="#fffef5" stop-opacity=".94118" offset="0"/>
   <stop id="stop8547" stop-color="#fce94f" stop-opacity="0" offset="1"/>
  </linearGradient>
  <radialGradient id="radialGradient7666" cx="336.74" cy="-72.42" r="297.21" gradientTransform="matrix(.29497 0 -9.6912e-5 .15369 -54.903 -20.706)" gradientUnits="userSpaceOnUse">
   <stop id="stop5014" stop-color="#fdf188" offset="0"/>
   <stop id="stop5016" stop-color="#d3bc00" offset="1"/>
  </radialGradient>
  <radialGradient id="radialGradient8549" cx="420.88" cy="685.99" r="235.89" gradientTransform="matrix(.35337 -.022947 .023296 .35618 -104.13 -188.58)" gradientUnits="userSpaceOnUse" xlink:href="#linearGradient8543"/>
  <radialGradient id="radialGradient9434" cx="500.98" cy="286.47" r="40.975" gradientTransform="matrix(.48575 .021902 -.021089 .46438 -163.99 -165.42)" gradientUnits="userSpaceOnUse" xlink:href="#linearGradient8543"/>
  <radialGradient id="radialGradient10317" cx="293.82" cy="243.07" r="48.783" gradientTransform="matrix(.58983 -.15443 .12136 .46021 -174.07 -99.544)" gradientUnits="userSpaceOnUse" xlink:href="#linearGradient8543"/>
  <radialGradient id="radialGradient11208" cx="424.99" cy="270.68" r="38.452" gradientTransform="matrix(.17664 .02207 -.093694 .74454 8.889 -229.16)" gradientUnits="userSpaceOnUse">
   <stop id="stop11204" stop-color="#c4a000" offset="0"/>
   <stop id="stop11206" stop-color="#c4a000" stop-opacity="0" offset="1"/>
  </radialGradient>
  <radialGradient id="radialGradient13895" cx="340.36" cy="409.84" r="103.26" gradientTransform="matrix(.22825 -.097193 .14462 .3372 -103.78 -99.651)" gradientUnits="userSpaceOnUse" xlink:href="#linearGradient8543"/>
  <radialGradient id="radialGradient2798" cx="131.24" cy="424.16" r="35.935" gradientTransform="matrix(.2203 -.091989 .2079 .49436 -109.52 -185.53)" gradientUnits="userSpaceOnUse" xlink:href="#linearGradient8543"/>
  <radialGradient id="radialGradient2813" cx="15.492" cy="10.943" r="18.37" gradientTransform="matrix(3.0309 0 0 2.4022 -17.822 -47.097)" gradientUnits="userSpaceOnUse">
   <stop id="stop2809" stop-color="#fff" offset="0"/>
   <stop id="stop2811" stop-color="#fff" stop-opacity="0" offset="1"/>
  </radialGradient>
 </defs>
 <metadata id="metadata7">
  <rdf:RDF>
   <cc:Work rdf:about="">
    <dc:format>image/svg+xml</dc:format>
    <dc:type rdf:resource="http://purl.org/dc/dcmitype/StillImage"/>
    <dc:contributor>
     <cc:Agent>
      <dc:title>Henrik Andersen</dc:title>
     </cc:Agent>
    </dc:contributor>
    <dc:title/>
    <dc:subject>
     <rdf:Bag>
      <rdf:li>developer</rdf:li>
      <rdf:li>dev</rdf:li>
      <rdf:li>tool</rdf:li>
      <rdf:li>make</rdf:li>
      <rdf:li>compile</rdf:li>
      <rdf:li>build</rdf:li>
      <rdf:li>code</rdf:li>
      <rdf:li>hacker</rdf:li>
     </rdf:Bag>
    </dc:subject>
    <dc:creator>
     <cc:Agent>
      <dc:title>Jakub Steiner</dc:title>
     </cc:Agent>
    </dc:creator>
    <dc:source>http://jimmac.musichall.cz</dc:source>
    <cc:license rdf:resource="http://creativecommons.org/publicdomain/zero/1.0/"/>
   </cc:Work>
   <cc:License rdf:about="http://creativecommons.org/publicdomain/zero/1.0/">
    <cc:permits rdf:resource="http://creativecommons.org/ns#Reproduction"/>
    <cc:permits rdf:resource="http://creativecommons.org/ns#Distribution"/>
    <cc:permits rdf:resource="http://creativecommons.org/ns#DerivativeWorks"/>
   </cc:License>
  </rdf:RDF>
 </metadata>
 <g id="layer1" transform="matrix(1.0667 0 0 1.0667 0 48.8)">
  <path id="path3120" d="m45.687-44.67c-5.991 0.08374-11.424 1.5302-16.246 3.9606-2.3613 4.6332-10.136 10.141-13.322 10.727-6.266 7.4483-10.329 16.802-11.871 25.795-9.423e-4 0.00558 9.421e-4 0.011201 0 0.016577-2.5635 3.3368-3.6519 7.3134-2.9762 11.912 2.4227 16.492 7.0923 32.057 17.687 35.648 15.46 5.2406 47.262 3.8452 54.301 0.9867 15.426-6.2641 16.793-19.992 19.213-36.13 0.66025-4.4028-0.31297-8.2707-2.6591-11.569-0.01944-0.11972-0.03993-0.24002-0.06126-0.36031-1.6882-9.5575-6.1527-19.139-12.841-26.633-4.5244-0.46816-13.267-7.7004-15.384-11.247-4.6516-1.983-9.771-3.1066-15.289-3.1066-0.18436 0-0.36742-0.0025-0.55074 0z" fill="url(#radialGradient7666)" stroke="#c4a000" stroke-width="2.157"/>
  <path id="path7668" d="m89.934 1.8652c-9.9317 35.398-71.722 38.778-86.102 0.53675-0.091203 35.148 13.657 45.306 52.739 43.505 6.6165-0.30292 21.63 0.09231 31.58-19.673 4.8368-24.784 1.7832-24.369 1.7832-24.369z" fill="url(#radialGradient8549)" fill-rule="evenodd" opacity=".66667"/>
  <path id="path8553" d="m70.62-30.679 5.404 2.4231s-2.8316 21.796-14.411 35.495c3.8283-13.9 9.0517-37.918 9.0067-37.918z" fill="url(#radialGradient9434)" fill-rule="evenodd"/>
  <path id="path9436" d="m29.955-38.262c3.2424 19.52 14.05 41.956 12.97 43.078-9.9074-15.032-14.05-27.821-17.293-38.591 0-0.17949 4.3232-4.4424 4.3232-4.4873z" fill="url(#radialGradient10317)" fill-rule="evenodd"/>
  <path id="path10319" d="m60.938-38.98c-8.8266 35.539-9.1868 41.463-9.1868 41.463s13.69-36.078 13.69-36.975c0-2e-6 -3.4225-3.2309-4.5034-4.4873z" fill="url(#radialGradient11208)" fill-rule="evenodd"/>
  <flowRoot id="flowRoot12974" transform="matrix(2.7523 0 0 2.199 13.817 -52.658)" style="line-height:0.01%" xml:space="preserve"><flowRegion id="flowRegion12976"><rect id="rect12978" x="86.788" y="412.8" width="40.056" height="16.022"/></flowRegion><flowPara id="flowPara12980" font-size="12px" style="line-height:1.25"> </flowPara></flowRoot>
  <path id="path13014" d="m30.624 27.021-0.096529-20.605h31.319l3.5494-2.7206h-36.586l0.09653 22.911z" fill="url(#radialGradient13895)" fill-rule="evenodd"/>
  <path id="path13897" d="m62.737 6.2234 0.1765 21.111 1.4827-0.46237 0.0259-23.369-1.685 2.7206z" fill="#958401" fill-rule="evenodd"/>
  <path id="path16526" d="m4.8519 4.6924s5.0059 17.474 22.086 18.875c2.3891 5.3622-2.4525 8.8809-2.4525 8.8809l-7.7996-0.54057s-13.481-17.21-14.02-21.318c-0.53899-4.1081 0.35283-7.3375 0.35283-7.3375z" fill="url(#radialGradient2798)" fill-rule="evenodd"/>
  <path id="path2703" d="m45.755-42.068c-5.6483 0.07896-10.771 1.4427-15.317 3.734-2.2262 4.3682-9.5558 9.5606-12.56 10.113-5.9075 7.0222-9.7384 15.841-11.192 24.319-8.642e-4 0.00519 8.632e-4 0.010555 0 0.015715-2.4169 3.1459-4.0159 6.9901-3.379 11.326 2.2841 15.548 6.3261 29.519 15.835 33.674 12.799 5.593 46.544 3.8454 53.181 1.1504 14.544-5.9058 15.259-19.229 17.541-34.444 0.62249-4.1509-0.29506-7.7975-2.507-10.907-0.01809-0.11287-0.03765-0.22629-0.05772-0.3397-1.5916-9.0108-5.8007-18.045-12.107-25.109-4.2656-0.44138-12.508-7.2599-14.504-10.604-4.3854-1.8696-9.212-2.9288-14.414-2.9288-0.17382 0-0.3464-0.0024-0.51924 0z" fill="none" opacity=".74444" stroke="#fff" stroke-width="2.157"/>
  <path id="path2800" d="m44.479-41.223c-5.0338 0.25099-9.5963 1.5611-13.708 3.6334-2.184 4.2854-9.4098 9.4162-12.357 9.9583-5.7956 6.8892-9.5137 15.501-10.939 23.819-8.632e-4 0.00519 8.641e-4 0.062184 0 0.067287-2.3711 3.0863-3.1506 7.7323-3.1506 7.7323 10.124 7.7622 16.512 0.46054 30.941-4.3434 27.225 4.1408 40.512-2.1444 48.65-12.203 0.01491-0.01831-0.0078-0.04495 0-0.06728-2.1418-5.5612-5.2558-10.865-9.2511-15.341-4.1848-0.43303-12.29-7.0813-14.248-10.362-4.3024-1.8341-9.0091-2.8933-14.113-2.8933-0.17054 0-0.37065-0.0023-0.54021 0-0.43292 6e-3 -0.85641-0.02125-1.283-1e-6z" fill="url(#radialGradient2813)" opacity=".59444"/>
 </g>
</svg>
